<svg width="1920" height="449" viewBox="0 0 1920 449" fill="none" xmlns="http://www.w3.org/2000/svg">
<path d="M832.744 354.943H810.522V399.535H765.93V354.943H654.541L679.396 176.758H723.989L704.565 310.516H765.93V199.128H810.522V310.516H832.744V354.943Z" fill="#1977F1"/>
<g clip-path="url(#clip0_392_2949)">
<path d="M991.94 346.378L1026.49 380.92C1006.81 396.032 982.258 404.928 955.721 404.928C891.208 404.928 838.784 352.456 838.784 288.016H886.921C886.921 325.922 917.795 356.793 955.704 356.793C969.007 356.793 981.404 353.003 991.94 346.378Z" fill="#1977F1"/>
<path d="M1072.59 288.017C1072.59 314.62 1063.63 339.225 1048.58 358.895L1014.04 324.353C1020.66 313.817 1024.45 301.37 1024.45 288H1072.59V288.017Z" fill="#1977F1"/>
<path d="M955.704 325.619C976.443 325.619 993.255 308.808 993.255 288.071C993.255 267.334 976.443 250.523 955.704 250.523C934.966 250.523 918.154 267.334 918.154 288.071C918.154 308.808 934.966 325.619 955.704 325.619Z" fill="#FDC500"/>
<path d="M1072.61 288.018H1024.47C1024.47 250.094 993.613 219.257 955.704 219.257C917.795 219.257 886.939 250.111 886.939 288.018H838.784C838.784 223.543 891.225 171.105 955.704 171.105C1020.18 171.105 1072.62 223.543 1072.62 288.018H1072.61Z" fill="#1977F1"/>
</g>
<path d="M1256.15 354.943H1233.93V399.535H1189.34V354.943H1077.95L1102.8 176.758H1147.39L1127.97 310.516H1189.34V199.128H1233.93V310.516H1256.15V354.943Z" fill="#1977F1"/>
<path d="M953.689 83.4473C953.689 83.4473 949.786 82.3979 951.627 75.8803C953.468 69.3627 958.715 69.823 958.715 69.823C958.715 69.823 963.208 68.9024 965.306 71.3879C967.424 73.8734 970.259 82.9687 962.729 84.6993C955.199 86.4484 953.67 83.4473 953.67 83.4473H953.689Z" fill="#295A6E"/>
<path d="M942.292 96.1537C941.114 94.9569 939.586 92.7292 938.315 93.8339C935.959 95.8775 931.871 101.677 927.784 109.06C923.697 116.443 922.371 120.07 922.942 124.747C923.439 128.779 930.233 132.037 930.233 132.037C930.233 132.037 935.811 113.479 938.021 106.943C939.291 103.15 944.17 98.05 942.292 96.1537Z" fill="#1977F1"/>
<path d="M972.524 95.3793C973.702 94.1826 971.971 91.8628 973.573 92.3415C976.151 93.0963 981.011 99.2089 986.259 109.206C988.173 112.87 989.591 115.761 990.64 118.044C992.758 122.647 991.285 128.096 987.142 131.005L984.694 132.718C984.694 132.718 975.046 107.954 971.99 102.965C969.909 99.5587 970.646 97.2757 972.524 95.3793Z" fill="#1A67CC"/>
<path d="M943.176 128.059C943.176 128.059 934.302 138.774 928.834 150.557C926.422 155.768 923.034 165.876 926.569 172.043C929.147 176.536 938.371 179.463 938.371 179.463L961.182 166.317L963.999 133.969L943.176 128.077V128.059Z" fill="#FF9A2E"/>
<path d="M944.907 259.146C945.606 258.078 946.269 251.579 943.157 248.633C943.544 249.203 944.078 252.02 943.213 252.186C941.961 252.425 940.561 249.609 940.12 248.246C939.622 249.093 939.346 250.235 939.383 251.118C939.567 255.279 943.268 261.668 944.907 259.164V259.146Z" fill="#30193B"/>
<path d="M940.562 245.706C940.58 246.94 940.598 247.621 940.58 247.621C940.414 247.787 940.267 247.989 940.12 248.247C939.954 249.923 941.556 253.789 943.544 253.402C944.52 253.2 944.962 251.359 943.728 249.499C942.826 248.137 942.384 247.529 942.219 247.363C942.384 246.903 942.568 246.388 942.771 245.835C944.207 241.877 940.506 242.65 940.562 245.725V245.706Z" fill="#FF97A6"/>
<path d="M968.602 130.085C968.602 130.085 979.667 144.538 985.227 155.382C987.86 160.5 987.805 168.565 985.688 175.671C984.196 180.642 974.273 185.319 974.273 185.319L950.743 167.165L947.779 133.215L968.602 130.066V130.085Z" fill="#FF9A2E"/>
<path d="M964.423 258.797C963.852 257.655 963.962 251.119 967.387 248.56C966.945 249.076 966.08 251.819 966.908 252.077C968.123 252.463 969.836 249.831 970.443 248.523C970.83 249.426 970.977 250.586 970.848 251.451C970.185 255.575 965.748 261.467 964.404 258.779L964.423 258.797Z" fill="#30193B"/>
<path d="M970.333 245.966C970.167 247.199 970.075 247.862 970.093 247.862C970.241 248.046 970.369 248.267 970.48 248.525C970.443 250.2 968.399 253.864 966.466 253.238C965.509 252.925 965.306 251.029 966.742 249.335C967.792 248.083 968.307 247.53 968.491 247.383C968.381 246.904 968.271 246.371 968.123 245.8C967.166 241.713 970.738 242.891 970.333 245.947V245.966Z" fill="#FF97A6"/>
<path d="M938.315 93.8329C941.979 91.1449 950.725 88.9171 970.959 91.6236C972.339 91.8077 972.708 92.0654 973.444 92.4705C974.309 92.9492 974.899 93.8329 974.991 94.8271C975.433 99.9087 975.396 101.216 975.396 101.216C973.536 104.935 973.021 114.656 972.247 118.412C971.253 123.254 970.222 133.417 970.222 133.417C970.222 133.417 961.201 134.964 954.572 135.019C949.123 135.074 940.027 134.54 939.751 131.834C939.217 126.439 938.849 119.222 938.242 111.416C937.542 102.486 938.297 93.8513 938.297 93.8513L938.315 93.8329Z" fill="#1977F1"/>
<path d="M957.905 90.6094C957.905 90.6094 961.146 90.7014 962.563 90.7935C965.159 90.9592 967.958 91.2354 970.959 91.6404C971.99 91.7877 972.505 91.9166 973.002 92.1191C974.346 92.653 975.304 93.8314 975.635 95.2306C976.611 99.5573 975.893 103.589 975.893 103.589C975.911 107.842 975.93 114.342 975.157 118.079C974.162 122.921 971.29 133.729 971.29 133.729C971.29 133.729 971.714 134.428 956.322 135.036C956.322 135.036 960.078 123.731 959.673 112.316C959.231 99.7598 957.887 90.6094 957.887 90.6094H957.905Z" fill="#1A67CC"/>
<path d="M959.654 84.2031C959.654 84.2031 959.894 91.6044 959.286 92.3409C958.66 93.0957 956.616 93.9243 955.714 91.9726C954.812 90.021 956.653 83.8164 956.653 83.8164L959.654 84.2031Z" fill="#FF97A6"/>
<path d="M959.672 89.5613C958.457 90.04 956.819 88.9169 955.861 87.0942C955.99 85.7686 955.953 86.5418 956.23 85.4372L959.617 83.7617C959.617 84.8296 959.728 88.3278 959.672 89.5613Z" fill="#C95D77"/>
<path d="M953.689 81.8674C953.376 81.002 953.836 78.2956 954.076 76.9884C954.186 76.436 954.481 75.9389 954.941 75.6443C957.5 74.0794 962.508 75.4602 963.392 76.2335C964.478 77.1541 964.276 78.8663 964.165 80.1183C964.055 81.3887 962.453 87.5933 958.384 86.9121C953.947 86.1756 954.094 84.3897 953.671 81.8674H953.689Z" fill="#FF97A6"/>
<path d="M943.655 247.163H939.144C939.144 247.163 922.979 176.353 939.144 157.776C942.403 154.02 952.234 151.019 956.506 159.433C961.514 169.283 943.655 247.163 943.655 247.163Z" fill="#FDC500"/>
<path d="M967.074 247.034L971.567 247.567C971.567 247.567 996.919 179.206 983.055 158.862C980.257 154.737 970.849 150.613 965.62 158.457C959.489 167.662 967.093 247.034 967.093 247.034H967.074Z" fill="#FDC500"/>
<path d="M986.02 113.992H931.835C930.655 113.992 929.699 114.948 929.699 116.128V150.76C929.699 151.939 930.655 152.895 931.835 152.895H986.02C987.199 152.895 988.155 151.939 988.155 150.76V116.128C988.155 114.948 987.199 113.992 986.02 113.992Z" fill="#91B3FA"/>
<path d="M945.772 152.895H936.695V153.962H945.772V152.895Z" fill="#BDD0FB"/>
<path d="M977.311 152.895H968.234V153.962H977.311V152.895Z" fill="#BDD0FB"/>
<path d="M986.572 156.3H931.282C930.638 156.3 930.123 155.785 930.123 155.14C930.123 154.496 930.638 153.98 931.282 153.98H986.572C987.216 153.98 987.732 154.496 987.732 155.14C987.732 155.785 987.216 156.3 986.572 156.3Z" fill="#91B3FA"/>
<path d="M959.673 135.719C962.103 135.719 964.073 133.749 964.073 131.318C964.073 128.888 962.103 126.918 959.673 126.918C957.243 126.918 955.272 128.888 955.272 131.318C955.272 133.749 957.243 135.719 959.673 135.719Z" fill="#D2E0FF"/>
<path d="M945.478 91.1263C945.478 91.1263 948.773 105.708 958.918 105.064C969.081 104.419 971.953 91.7891 971.953 91.7891C971.953 91.7891 965.472 90.3899 957.077 90.2242C953.358 90.1505 949.491 90.5187 945.478 91.1263Z" fill="#FF97A6"/>
<path d="M954.168 81.5868C954.168 81.5868 962.379 79.6536 962.803 76.5237C963.226 73.3938 956.672 75.1613 956.672 75.1613C956.672 75.1613 954.278 77.6652 954.168 81.5868Z" fill="#295A6E"/>
<path d="M968.86 77.1328H949.951V72.8982C949.951 67.6693 954.186 63.4531 959.396 63.4531C964.625 63.4531 968.841 67.6877 968.841 72.8982V77.1328H968.86Z" fill="#FDC500"/>
<path d="M955.272 77.3148H953.357L953.634 75.1606C953.652 74.9765 953.799 74.8477 953.983 74.8477H954.922C955.125 74.8477 955.272 75.0134 955.272 75.1975V77.3148Z" fill="#FF9A2E"/>
<path d="M963.649 77.1312H965.564L965.288 74.9771C965.27 74.7929 965.122 74.6641 964.938 74.6641H963.999C963.797 74.6641 963.649 74.8298 963.649 75.0139V77.1312Z" fill="#FF9A2E"/>
<path d="M961.201 67.4287H957.61V64.3356C957.61 63.3413 958.42 62.5312 959.415 62.5312C960.409 62.5312 961.219 63.3413 961.219 64.3356V67.4287H961.201Z" fill="#FFCB48"/>
<path d="M957.831 67.4283H956.009V65.1821C956.009 64.1695 956.819 63.3594 957.831 63.3594V67.4283Z" fill="#FFCB48"/>
<path d="M960.943 67.4272H962.821V65.2178C962.821 64.1868 961.974 63.3398 960.943 63.3398V67.4087V67.4272Z" fill="#FFCB48"/>
<path d="M949.97 76.688C949.97 76.688 952.547 77.2035 959.82 77.1114C967.092 77.0194 968.86 76.375 968.86 76.375C968.86 76.375 969.081 78.7317 967.534 79.2288C966.098 79.689 955.585 80.628 951.535 79.3024C950.522 78.971 949.841 77.8847 949.951 76.7432C949.951 76.7432 949.951 76.7064 949.951 76.688H949.97Z" fill="#FF9A2E"/>
<path d="M957.61 63.4531C957.666 63.8766 957.684 64.3185 957.702 64.7419C957.721 65.1654 957.721 65.6072 957.721 66.0307C957.721 66.4542 957.721 66.8961 957.702 67.3195C957.684 67.743 957.666 68.1848 957.61 68.6083C957.555 68.1848 957.537 67.743 957.518 67.3195C957.5 66.8961 957.5 66.4542 957.5 66.0307C957.5 65.6072 957.5 65.1654 957.518 64.7419C957.537 64.3185 957.555 63.8766 957.61 63.4531Z" fill="#FF9A2E"/>
<path d="M961.072 63.4531C961.127 63.8766 961.146 64.3185 961.164 64.7419C961.182 65.1654 961.182 65.6072 961.182 66.0307C961.182 66.4542 961.182 66.8961 961.164 67.3195C961.146 67.743 961.127 68.1848 961.072 68.6083C961.017 68.1848 960.998 67.743 960.98 67.3195C960.961 66.8961 960.961 66.4542 960.961 66.0307C960.961 65.6072 960.961 65.1654 960.98 64.7419C960.998 64.3185 961.017 63.8766 961.072 63.4531Z" fill="#FF9A2E"/>
<path d="M956.064 64.0586C956.119 64.4452 956.138 64.8503 956.138 65.2369C956.138 65.6236 956.138 66.0286 956.064 66.4152C956.009 66.0286 955.99 65.6236 955.99 65.2369C955.99 64.8503 955.99 64.4452 956.064 64.0586Z" fill="#FF9A2E"/>
<path d="M962.692 64.0586C962.747 64.4821 962.765 64.9239 962.765 65.3474C962.765 65.7708 962.765 66.2127 962.692 66.6362C962.637 66.2127 962.618 65.7708 962.618 65.3474C962.618 64.9239 962.618 64.4821 962.692 64.0586Z" fill="#FF9A2E"/>
<path d="M565.522 36.3176C565.522 36.3176 563.663 26.3939 553.481 28.1245C548.878 28.8978 549.523 32.4328 545.601 31.6411C541.68 30.8494 544.331 32.5985 541.919 34.9551C539.526 37.3118 530.044 32.4328 527.558 35.8021C525.073 39.1713 526.048 41.2518 526.472 44.8052C526.895 48.3586 519.586 43.6085 517.782 48.9109C515.977 54.2134 515.849 68.3902 536.009 74.5948C549.67 78.7926 567.695 56.1466 569.554 50.0524C571.046 45.155 573.476 31.5674 565.522 36.2992V36.3176Z" fill="#FF5E4D"/>
<path d="M565.523 36.316C564.749 33.6832 563.24 31.1792 560.938 29.7616C558.692 28.2887 555.838 28.0861 553.261 28.6753C551.972 28.9515 550.922 29.6143 549.983 30.5717C549.505 31.032 548.989 31.6027 548.234 31.9709C547.48 32.3576 546.614 32.376 545.878 32.2655C545.473 32.2103 545.178 32.155 544.847 32.0998C544.534 32.063 544.202 32.0262 543.981 32.063C543.871 32.063 543.816 32.0998 543.852 32.0998C543.852 32.063 543.852 32.0998 543.816 32.2287C543.76 32.4865 543.742 32.8915 543.632 33.2781C543.447 34.0698 542.987 34.8063 542.453 35.3402C541.79 35.9846 540.888 36.2055 540.152 36.2608C538.624 36.3528 537.243 36.0583 535.88 35.8189C534.518 35.5796 533.174 35.3218 531.83 35.2113C530.541 35.1193 529.105 35.1193 528.313 35.8741C528.221 35.9662 528.111 36.0398 528.019 36.1503L527.743 36.5554C527.558 36.8315 527.393 37.1077 527.227 37.3839C526.914 37.9546 526.675 38.5438 526.564 39.1698C526.306 40.4217 526.509 41.7658 526.693 43.1466L526.822 44.1777C526.859 44.5275 526.932 44.8589 526.877 45.3007C526.84 45.7242 526.509 46.2213 526.086 46.3686C525.681 46.5343 525.294 46.5527 524.944 46.5527C523.508 46.5159 522.164 46.2397 520.82 46.4422C519.476 46.5895 518.298 47.5469 517.819 48.8726C518.003 48.2097 518.334 47.5654 518.85 47.0683C519.365 46.5711 520.047 46.2766 520.746 46.1109C522.146 45.7979 523.582 45.982 524.907 45.9083C525.588 45.8715 526.159 45.7242 526.141 45.2087C526.178 44.9693 526.104 44.6195 526.049 44.2697L525.883 43.2571C525.644 41.9131 525.349 40.477 525.57 38.9857C525.681 38.2492 525.92 37.5312 526.251 36.8683C526.417 36.5369 526.601 36.224 526.804 35.911L527.117 35.4691C527.245 35.3218 527.411 35.1561 527.558 35.0088C527.835 34.6774 528.24 34.5485 528.589 34.346C528.958 34.2355 529.344 34.1066 529.713 34.0514C530.467 33.9409 531.204 33.9409 531.904 33.9962C533.34 34.0882 534.72 34.346 536.083 34.5669C537.427 34.7879 538.808 35.0272 540.06 34.9351C540.704 34.8983 541.201 34.7326 541.551 34.4381C541.993 34.0146 542.288 33.5175 542.435 32.9651C542.508 32.6706 542.545 32.3944 542.619 31.9709C542.674 31.75 542.748 31.437 543.042 31.1976C543.319 30.9399 543.632 30.8847 543.852 30.8663C544.755 30.7926 545.436 31.032 546.062 31.1056C546.688 31.1977 547.259 31.1792 547.756 30.9399C548.253 30.719 548.713 30.2587 549.229 29.7616C550.204 28.7305 551.641 27.9204 553.095 27.6995C555.894 27.184 558.987 27.5338 561.343 29.2276C563.682 30.9399 565.062 33.6095 565.559 36.316H565.523Z" fill="#FF7B71"/>
<path d="M554.384 217.98C553.85 217.169 551.53 216.672 549.689 216.359C550.259 216.617 550.849 217.022 550.038 217.372C548.879 217.869 546.062 217.243 545.159 216.47C544.957 217.169 544.994 218.072 545.086 218.698C545.196 219.508 555.249 219.268 554.384 217.98Z" fill="#30193B"/>
<path d="M505.225 229.874C504.912 228.972 508.263 226.137 509.533 225.621C509.147 225.952 508.594 226.652 509.184 226.928C510.049 227.333 511.761 226.707 512.332 225.805C512.534 226.505 512.571 227.481 512.553 228.125C512.534 228.972 505.943 231.991 505.225 229.874Z" fill="#30193B"/>
<path d="M550.793 216.562C549.744 216.084 546.761 215.734 546.688 215.568C547.903 210.616 554.384 161.881 554.273 151.129C554.089 132.367 547.129 85.0686 544.883 80.7788C539.894 79.269 528.018 82.178 520.083 82.1228C520.01 82.491 511.264 90.6288 506.827 100.074C499.886 114.785 510.27 208.388 511.08 224.829C510.933 224.921 510.436 225.087 509.405 225.75C509.018 226.081 507.6 227.37 508.171 227.665C509.018 228.088 511.78 226.818 512.387 225.934C512.332 225.731 512.277 225.547 512.185 225.4C512.111 225.271 529.731 118.614 529.731 118.614L538.605 151.994C538.605 151.994 545.196 216.673 545.123 216.783C545.785 217.759 548.639 217.943 549.91 217.759C550.775 217.63 551.309 217.004 550.812 216.599L550.793 216.562Z" fill="#FF97A6"/>
<path d="M521.041 81.4432C521.041 81.4432 512.443 85.7146 505.354 100.83C502.869 106.133 501.801 137.358 502.151 144.833L509.147 144.097L509.902 117.493L512.222 143.784C512.222 143.784 542.729 144.023 555.985 137.322C555.985 137.322 558.011 109.521 544.018 74.0234L521.059 81.4432H521.041Z" fill="#1977F1"/>
<path d="M532.419 142.733C532.419 142.733 533.468 142.623 534.002 142.568C542.011 141.666 550.462 140.082 555.948 137.302C555.948 137.302 557.974 109.501 543.981 74.0039L534.444 77.0786L531.83 77.4837C531.83 77.4837 540.796 90.1323 539.305 104.456C537.427 122.573 532.4 142.715 532.4 142.715L532.419 142.733Z" fill="#1967CC"/>
<path d="M541.072 48.1168C545.197 48.706 554.439 53.6218 555.396 54.0821C559.392 56.0705 561.638 55.8128 561.178 62.2383C560.92 65.939 558.692 70.6523 557.643 72.5487C552.635 81.5702 546.541 89.6528 546.541 89.6528C546.541 89.6528 538.587 90.9968 530.909 88.0694C522.09 84.7186 521.022 81.4598 521.022 81.4598C521.022 81.4598 521.998 71.3151 530.136 54.1742C530.652 53.0695 536.193 47.454 541.054 48.1352L541.072 48.1168Z" fill="#AACBE8"/>
<path d="M570.585 84.275C570.585 84.275 584.32 96.9789 590.543 98.3597C591.022 98.4702 592.9 98.8016 593.949 98.6727C597.448 98.2677 601.995 94.3645 595.901 88.8595C585.756 79.6722 573.623 75.9531 573.623 75.9531C573.623 75.9531 575.557 79.4328 570.585 84.275Z" fill="#9FC0E2"/>
<path d="M559.17 55.8663C555.102 52.497 551.548 61.7947 570.585 84.2566C572.648 86.6869 578.834 82.8757 576.035 79.2119C568.781 69.6748 563.442 59.4013 559.17 55.8663Z" fill="#9FC0E2"/>
<path d="M603.367 81.8446L587.224 93.3594L590.784 98.3507L606.927 86.8359L603.367 81.8446Z" fill="#FF9A2E"/>
<path d="M589.682 91.4531L593.317 96.5493C594.333 97.9733 593.991 99.9357 592.582 100.941L565.572 120.207C564.927 120.667 564.029 120.516 563.569 119.872L557.934 111.972C557.475 111.328 557.625 110.429 558.27 109.969L585.28 90.7032C586.704 89.6875 588.666 90.0291 589.671 91.4381L589.682 91.4531Z" fill="#FF9A2E"/>
<path d="M589.704 91.4414L593.339 96.5376C594.355 97.9616 594.013 99.924 592.604 100.929L569.191 117.629L561.889 107.392L585.302 90.6915C586.726 89.6758 588.688 90.0174 589.693 91.4264L589.704 91.4414Z" fill="#FDC500"/>
<path d="M661.004 56.3287C664.465 70.082 654.873 86.7811 639.61 93.5565C632.19 96.8521 624.513 97.3492 618.013 94.9373C611.514 92.5439 606.967 87.536 605.236 80.8711L605.181 80.6869C601.719 66.9337 611.312 50.2346 626.575 43.4592C641.948 36.647 657.358 42.3361 660.967 56.1446L661.022 56.3287M667.208 53.6222C667.208 53.6222 667.172 53.475 667.153 53.4013C662.753 36.5365 643.918 29.577 625.157 37.8989C606.469 46.184 594.797 66.547 599.031 83.375C599.05 83.4486 599.068 83.5223 599.086 83.5959C603.487 100.461 622.322 107.42 641.083 99.0983C659.77 90.8132 671.443 70.4502 667.208 53.6222Z" fill="#FF9A2E"/>
<path d="M658.739 53.8053C662.201 67.5585 652.608 84.2576 637.345 91.033C629.925 94.3287 622.248 94.8258 615.749 92.4139C609.25 90.0204 604.702 85.0125 602.971 78.3476L602.934 78.1635C599.473 64.4102 609.065 47.7111 624.328 40.9357C639.702 34.1235 655.112 39.8126 658.721 53.6212L658.758 53.8053M664.944 51.0988C664.944 51.0988 664.907 50.9515 664.889 50.8779C660.507 34.0131 641.653 27.0536 622.892 35.3755C604.205 43.6606 592.532 64.0236 596.767 80.8515C596.785 80.9252 596.803 80.9988 596.822 81.0725C601.222 97.9373 620.057 104.897 638.818 96.5749C657.506 88.2897 669.178 67.9268 664.944 51.0988Z" fill="#FDC500"/>
<g opacity="0.69">
<path d="M648.353 85.5338C661.942 73.3329 665.116 54.7081 655.442 43.9341C645.768 33.1601 626.91 34.3168 613.322 46.5177C599.733 58.7186 596.559 77.3434 606.233 88.1175C615.907 98.8915 634.765 97.7347 648.353 85.5338Z" fill="#D5EAF5"/>
</g>
<path d="M594.649 95.9846C594.649 95.9846 594.815 96.0398 594.907 95.9846C595.607 95.6532 598.939 93.9778 598.755 92.5969C598.46 90.4796 596.048 89.3565 595.404 89.7984C594.833 90.185 595.791 91.3081 595.791 91.3081C595.791 91.3081 595.846 91.0319 595.22 91.2529C594.594 91.4738 595.349 92.689 595.441 93.4438C595.533 94.1619 593.508 95.9846 594.649 96.003V95.9846Z" fill="#FF97A6"/>
<path d="M571.874 105.725C571.874 105.725 572.463 105.467 573.016 105.154C573.66 104.804 574.249 104.418 573.899 104.326C573.55 104.234 572.96 104.307 572.334 104.455C570.954 104.804 569.499 105.559 570.622 105.78C571.322 105.909 571.856 105.707 571.856 105.707L571.874 105.725Z" fill="#FF97A6"/>
<path d="M569.057 105.688C569.168 105.504 569.37 105.375 569.591 105.338C570.364 105.228 572.169 104.988 572.96 105.099C573.973 105.246 576.551 106.811 576.624 107.363C576.716 107.916 575.336 107.437 575.336 107.437C575.336 107.437 576.845 107.897 576.753 108.597C576.661 109.297 574.286 108.726 574.286 108.726C574.286 108.726 574.949 109.646 574.433 109.628C574.028 109.61 572.74 109.241 571.893 108.984C571.635 108.91 570.696 108.579 570.475 108.431C569.831 107.953 568.45 106.903 568.45 106.756C568.45 106.627 568.8 106.038 569.039 105.688H569.057Z" fill="#FF97A6"/>
<path d="M537.629 89.6729C537.629 89.6729 552.193 71.1326 553.463 59.5151C553.684 57.5635 552.616 54.0285 553.666 53.2C554.715 52.3715 559.907 55.9985 560.478 57.1216C561.049 58.2631 561.822 65.867 556.998 73.7286C552.174 81.5903 547.59 90.4093 547.59 90.4093C547.59 90.4093 538.016 90.3357 537.629 89.6729Z" fill="#9FC0E2"/>
<path d="M535.53 50.4728C533.56 52.5532 531.903 58.9972 533.928 66.8405C535.751 73.9288 539.691 87.4612 547.074 92.0824C552.524 95.4885 549.044 81.901 549.044 81.901L542.416 64.5206C542.416 64.5206 537.703 48.1898 535.53 50.4728Z" fill="#D5EAF5"/>
<path d="M541.201 82.5449C540.151 88.8968 557.918 110.825 567.087 107.64C570.493 106.461 570.733 104.068 570.733 104.068L548.344 80.0962C548.344 80.0962 542.361 75.3829 541.182 82.5449H541.201Z" fill="#D5EAF5"/>
<path d="M558.398 46.7344C558.398 46.7344 553.113 51.9816 552.874 52.8654C552.653 53.7491 553.058 55.4798 554.863 54.5776C556.667 53.6571 560.11 48.1337 560.11 48.1337L558.379 46.7528L558.398 46.7344Z" fill="#FF97A6"/>
<path d="M559.153 45.7969C559.153 45.7969 553.869 51.0441 553.629 51.9279C553.408 52.8116 553.997 54.5975 555.802 53.6769C557.606 52.7564 560.865 47.1777 560.865 47.1777L559.134 45.7969H559.153Z" fill="#C95D77"/>
<path d="M565.044 44.6367C564.271 41.4883 558.269 40.1075 557.017 40.4021C555.654 40.7151 555.028 42.2984 554.55 43.4584C554.071 44.6183 552.966 49.9944 556.483 52.0749C563.092 56.0149 565.062 44.6367 565.062 44.6367H565.044Z" fill="#FF97A6"/>
<path d="M548.289 45.8359C548.289 45.8359 557.55 48.6896 563.147 42.2272C563.147 42.2272 562.448 47.8979 566.646 50.8069C566.646 50.8069 570.346 43.8474 564.731 38.7843C559.115 33.7396 547.995 42.1168 548.289 45.8174V45.8359Z" fill="#FF5E4D"/>
<path d="M1349.57 247.715C1353.29 246.887 1348.83 242.634 1345.78 242.136C1346.61 242.542 1347.62 243.131 1346.33 243.425C1344.45 243.867 1341.84 242.192 1340.59 241.105C1340.14 241.916 1340.05 243.057 1340.07 243.83C1340.11 244.825 1346.79 248.304 1349.57 247.697V247.715Z" fill="#30193B"/>
<path d="M1346.26 243.922C1347.58 243.719 1346.83 242.375 1345.89 241.841C1342.7 240.019 1342.87 238.785 1342.87 238.785H1341.28C1341.28 238.785 1340.71 240.902 1340.58 241.123C1341.41 242.32 1343.46 244.345 1346.26 243.922Z" fill="#FF97A6"/>
<path d="M1296.47 246.353C1295.94 242.579 1300.91 242.928 1303.76 242.266C1302.99 242.763 1302.07 243.481 1303.28 243.812C1305.07 244.291 1308.97 243.683 1310.1 242.376C1310.54 243.334 1310.67 244.659 1310.67 245.58C1310.67 246.758 1296.6 247.347 1296.47 246.353Z" fill="#30193B"/>
<path d="M1303.28 243.811C1302.07 243.48 1301.68 242.633 1303.52 242.32C1305.18 242.025 1306.52 241.399 1306.82 241.27C1307.59 240.92 1307.87 239.669 1307.87 239.669L1309.36 239.613C1309.36 239.613 1309.97 242.117 1310.1 242.393C1308.95 243.701 1305.07 244.308 1303.28 243.829V243.811Z" fill="#FF97A6"/>
<path d="M1293.43 115.945C1296.38 108.065 1298.79 102.431 1300.58 101.621C1310.08 97.5333 1323.44 91.8626 1325.21 92.2492C1326.91 93.225 1337.64 109.243 1339.54 119.516C1344.06 144.132 1344.12 229.727 1344.27 238.435C1344.27 238.84 1343.99 239.172 1343.59 239.227L1341.05 239.614C1340.66 239.669 1340.29 239.448 1340.16 239.061C1338.54 233.925 1327.72 199.256 1321.77 169.338C1317.68 148.754 1315.1 131.244 1314.04 130.6C1311.2 139.603 1311.75 223.485 1309.97 239.779C1309.67 242.504 1304.57 240.369 1304.57 238.159C1304.57 228.438 1292.53 196.384 1289.27 164.753C1287.03 142.973 1289.03 127.728 1293.43 115.945Z" fill="#1977F1"/>
<path d="M1293.43 115.946C1296.38 108.066 1298.79 102.432 1300.58 101.622C1303.08 100.535 1305.86 99.357 1308.62 98.1787C1312.31 96.6321 1301.09 121.138 1299.88 155.585C1299.38 169.431 1302.62 187.326 1303.54 200.546C1304.68 216.693 1306.08 225.033 1306.69 231.992C1306.97 235.085 1307.92 240.995 1307.76 240.959C1305.46 240.333 1304.74 238.933 1304.55 238.123C1302.23 228.089 1292.51 196.348 1289.25 164.717C1287.01 142.937 1289.02 127.692 1293.42 115.909L1293.43 115.946Z" fill="#1967CC"/>
<path d="M1258.8 97.128C1261.69 95.2316 1274.71 89.1559 1274.71 89.1559C1274.71 89.1559 1283.25 76.8387 1285.76 73.9849C1286.92 72.6593 1288.33 71.3889 1288.33 71.3889C1289.71 70.1185 1292.97 69.2164 1297.82 68.5352C1296.32 72.2542 1286.82 84.6451 1286.84 84.148C1285.04 87.1122 1282.77 90.4447 1280.21 93.3721C1277.38 96.6125 1275.48 98.6193 1270.9 102.946C1266.39 107.199 1256.19 104.548 1256.19 104.548C1256.19 104.548 1255.91 99.0428 1258.8 97.1464V97.128Z" fill="#EEEAFE"/>
<path d="M1316.47 70.0643C1318.05 74.6855 1321.16 82.9522 1326.28 93.0232C1326.28 93.0232 1327.02 95.3246 1317.5 100.958C1308.53 106.261 1297.63 105.782 1297.63 105.782C1297.63 105.782 1293.08 98.6755 1289.14 89.8564C1284.91 80.3746 1285.9 73.8018 1287.39 72.1816C1288 71.5188 1298.39 63.2705 1308.86 64.0253C1312.38 64.2831 1315.34 66.7318 1316.48 70.0643H1316.47Z" fill="#EEEAFE"/>
<path d="M1249.71 85.9594L1243.8 93.2812L1260.4 106.67L1266.3 99.3478L1249.71 85.9594Z" fill="#99CBFF"/>
<path d="M1209.11 18.3654C1218.54 18.3654 1227.39 21.4953 1234.72 27.4053C1243.21 34.2544 1248.51 43.994 1249.67 54.8751C1250.83 65.7378 1247.7 76.3979 1240.87 84.8856C1233.08 94.5331 1221.46 100.075 1209.02 100.075C1199.59 100.075 1190.73 96.945 1183.41 91.035C1174.92 84.1859 1169.62 74.4463 1168.46 63.5652C1167.3 52.7025 1170.43 42.0424 1177.26 33.5547C1185.05 23.9072 1196.66 18.3654 1209.11 18.3654ZM1209.11 6.96875C1193.85 6.96875 1178.69 13.6153 1168.38 26.3927C1150.28 48.8178 1153.8 81.7925 1176.24 99.8909C1185.89 107.679 1197.49 111.453 1209.02 111.453C1224.28 111.453 1239.43 104.807 1249.74 92.0292C1267.84 69.6042 1264.32 36.6294 1241.88 18.5311C1232.23 10.7431 1220.63 6.96875 1209.11 6.96875Z" fill="#1977F1"/>
<path d="M1300.24 145.133L1312.35 130.117L1269.3 95.3745L1257.18 110.391L1300.24 145.133Z" fill="#FDC500"/>
<path d="M1296.97 142.497L1309.09 127.48L1272.55 97.9983L1260.43 113.015L1296.97 142.497Z" fill="#1977F1"/>
<g opacity="0.69">
<path d="M1250.65 76.9594C1260.44 54.0274 1249.78 27.5043 1226.85 17.7182C1203.92 7.93221 1177.4 18.5891 1167.61 41.521C1157.82 64.4529 1168.48 90.9761 1191.41 100.762C1214.35 110.548 1240.87 99.8913 1250.65 76.9594Z" fill="#D5EAF5"/>
</g>
<path d="M1259.23 106.612C1259.13 106.612 1259.04 106.685 1258.95 106.648C1258.14 106.354 1254.22 104.881 1254.27 103.316C1254.35 100.922 1256.91 99.3943 1257.68 99.7993C1258.36 100.168 1257.42 101.512 1257.42 101.512C1257.42 101.512 1257.33 101.217 1258.05 101.383C1258.76 101.548 1258.05 103.003 1258.05 103.85C1258.05 104.66 1260.5 106.446 1259.23 106.612Z" fill="#FF97A6"/>
<path d="M1273.09 107.568C1273.09 107.568 1272.57 107.163 1272.11 106.739C1271.58 106.26 1271.08 105.727 1271.45 105.727C1271.8 105.727 1272.37 105.929 1272.94 106.224C1274.19 106.886 1275.45 107.973 1274.3 107.917C1273.59 107.881 1273.11 107.549 1273.11 107.549L1273.09 107.568Z" fill="#FF97A6"/>
<path d="M1275.85 108.211C1275.78 107.99 1275.61 107.825 1275.41 107.751C1274.69 107.456 1272.98 106.794 1272.19 106.72C1271.17 106.61 1268.28 107.53 1268.06 108.064C1267.84 108.58 1269.3 108.451 1269.3 108.451C1269.3 108.451 1267.71 108.524 1267.64 109.242C1267.57 109.96 1270.01 109.96 1270.01 109.96C1270.01 109.96 1269.15 110.715 1269.66 110.807C1270.07 110.881 1271.4 110.826 1272.28 110.789C1272.56 110.789 1273.55 110.678 1273.79 110.586C1274.53 110.273 1276.13 109.574 1276.16 109.427C1276.18 109.298 1275.98 108.653 1275.85 108.23V108.211Z" fill="#FF97A6"/>
<path d="M1312.32 103.389C1304.81 106.114 1297.61 105.801 1297.61 105.801C1297.61 105.801 1293.29 98.6025 1289.13 89.8755C1284.6 80.3937 1285.94 73.876 1287.38 72.2006C1288.63 70.7277 1293.18 68.2422 1293.18 68.2422C1293.18 68.2422 1291.22 79.3626 1295.55 87.795C1300.36 97.2032 1313.24 103.04 1312.34 103.371L1312.32 103.389Z" fill="#EEEAFE"/>
<path d="M1306.98 64.7254C1307.61 63.6392 1311.38 64.9464 1312.12 65.9774C1313.98 68.555 1314.64 70.0279 1316.3 74.7044C1318.84 81.8848 1318.55 96.4482 1313.72 104.107C1310.15 109.778 1282.55 119.168 1276.4 111.14C1274.12 108.158 1275.28 105.948 1275.28 105.948L1307.26 95.454L1305.6 76.1589C1305.6 76.1589 1304.44 69.0705 1306.98 64.7438V64.7254Z" fill="#EEEAFE"/>
<path d="M1316.3 74.6853C1317.35 77.0051 1317.92 79.5275 1318.22 82.0498C1318.53 84.5906 1318.55 87.1497 1318.38 89.6905C1318.18 92.2313 1317.79 94.772 1317.04 97.2207C1316.32 99.6695 1315.27 102.063 1313.72 104.07C1314.85 101.787 1315.55 99.3933 1316.08 96.963C1316.61 94.5327 1316.94 92.0656 1317.11 89.58C1317.31 87.0945 1317.33 84.609 1317.24 82.105C1317.11 79.6195 1316.89 77.1156 1316.32 74.6484L1316.3 74.6853Z" fill="#F8F7FD"/>
<path d="M1299.9 97.8631C1301.09 97.3476 1302.31 96.8873 1303.5 96.4086C1304.7 95.9115 1305.93 95.5064 1307.13 95.0462L1306.86 95.4696C1306.45 92.266 1306.1 89.0625 1305.82 85.8405C1305.53 82.6185 1305.29 79.4149 1305.07 76.1929V76.2298C1304.94 75.2171 1304.92 74.2413 1304.92 73.2471C1304.92 72.2529 1304.98 71.2587 1305.11 70.2829C1305.36 68.3313 1305.9 66.3429 1307 64.7227C1306.6 65.6248 1306.32 66.5454 1306.12 67.4844C1305.93 68.4233 1305.86 69.3991 1305.81 70.3381C1305.71 72.2529 1305.86 74.2045 1306.17 76.0456V76.0825C1306.52 79.286 1306.82 82.508 1307.08 85.73C1307.35 88.952 1307.56 92.174 1307.7 95.396V95.4328C1307.7 95.6169 1307.59 95.7826 1307.43 95.8378C1306.17 96.1876 1304.94 96.5743 1303.69 96.8873C1302.44 97.2187 1301.18 97.5685 1299.93 97.8631H1299.9Z" fill="#F8F7FD"/>
<path d="M1292.95 62.827C1292.95 62.827 1296.99 66.6198 1296.88 67.4299C1296.77 68.24 1295.55 70.0259 1293.8 69.5656C1292.05 69.1053 1290.34 64.5761 1290.34 64.5761L1292.95 62.8086V62.827Z" fill="#FF97A6"/>
<path d="M1295.75 65.6994C1295.02 66.7488 1294 67.5405 1291.78 67.5405C1291.19 66.7488 1291.19 66.5095 1290.84 65.7546L1293.86 63.7109C1294.43 64.2633 1295.15 65.0181 1295.75 65.6994Z" fill="#C95D77"/>
<path d="M1285.06 65.6441C1284.54 65.1654 1283.71 62.9376 1283.09 61.0412C1282.55 59.4763 1283.44 57.7824 1285.02 57.2853C1287.47 56.5305 1290.23 55.8492 1291.11 56.0518C1292.51 56.3832 1293.14 57.985 1293.62 59.1817C1294.12 60.36 1294.56 62.6614 1294.21 63.9318C1293.89 65.0917 1292.26 66.6383 1291.17 67.0249C1287.86 68.1849 1286.6 67.6877 1285.06 65.6441Z" fill="#FF97A6"/>
<path d="M1288.89 58.2628C1288.89 58.2628 1285.5 62.8289 1281.17 62.4606C1276.84 62.0924 1277.95 60.3801 1277.95 60.3801C1277.95 60.3801 1286.69 57.0845 1288.65 58.2812" fill="#3B2B5B"/>
<path d="M1288.89 56.6953C1288.89 56.6953 1291.26 63.8941 1293.97 63.3602C1295.16 63.1209 1295.16 56.6953 1295.16 56.6953H1288.89Z" fill="#3B2B5B"/>
<path d="M1284.65 58.7773V59.6611C1284.65 59.9004 1284.85 60.103 1285.09 60.103C1285.33 60.103 1285.54 59.9004 1285.54 59.6611V58.7773H1284.65ZM1285.09 59.8452C1285 59.8452 1284.93 59.7715 1284.93 59.6795C1284.93 59.5874 1285 59.4954 1285.09 59.5138C1285.19 59.5138 1285.26 59.5874 1285.26 59.6795C1285.26 59.7715 1285.19 59.8452 1285.09 59.8452Z" fill="#FD9E38"/>
<path d="M1290.19 58.8711L1291.28 60.4913C1291.35 60.6018 1291.48 60.6754 1291.61 60.657L1293.91 60.6018L1294.06 61.0252C1294.06 61.0252 1295 60.252 1295.15 59.6076C1295.29 58.9632 1290.19 58.8711 1290.19 58.8711Z" fill="#295A6E"/>
<path d="M1277.29 60.5458C1277.29 60.5458 1276.66 61.4848 1282.2 60.2144C1282.59 60.1224 1282.98 59.9935 1283.34 59.8462C1284.36 59.4043 1286.82 58.4653 1288.83 58.7599C1291.43 59.1466 1291.06 59.883 1292.94 59.9567C1294.81 60.0303 1296.53 59.7173 1296.56 59.3123C1296.56 59.3123 1296.56 59.165 1296.08 59.1282L1295.81 57.1398L1295.48 56.9004C1295.48 56.9004 1294.89 49.8857 1288.72 49.6831C1282.55 49.499 1281.45 52.8131 1280.82 54.378C1280.4 55.4275 1280.12 57.1397 1279.97 58.1892C1279.9 58.7231 1279.55 59.165 1279.05 59.3859C1278.35 59.6989 1277.42 60.1592 1277.29 60.5643V60.5458Z" fill="#FDC500"/>
<path d="M1295.66 57.0109C1295.66 57.0109 1293.86 57.8026 1290.1 57.0109C1286.35 56.2192 1285.52 57.1398 1283.73 57.3607C1281.95 57.5817 1281.08 57.7473 1281.08 57.7473C1281.08 57.7473 1280.27 59.165 1279.98 59.3676C1279.98 59.3676 1281.26 60.0488 1284.38 59.0546C1287.51 58.0604 1288.54 58.0972 1289.86 58.4654C1291.17 58.8521 1291.78 59.5701 1292.9 59.5885C1294.02 59.6069 1295.96 59.386 1296.09 59.0914C1296.09 59.0914 1295.85 57.1398 1295.66 56.9925V57.0109Z" fill="#FD9E38"/>
<path d="M1281.6 59.6085L1281.67 58.4302C1281.67 58.3013 1281.78 58.2092 1281.91 58.1908L1282.76 58.1172C1282.9 58.1172 1283.01 58.2092 1283.03 58.3565L1283.09 59.406C1283.09 59.406 1282.35 59.6637 1281.6 59.5901V59.6085Z" fill="#FFCB48"/>
<path d="M1282.83 52.0968C1283.55 51.342 1284.47 50.7528 1285.46 50.3478C1285.96 50.1452 1286.47 50.0163 1287.01 49.9243C1287.54 49.8506 1288.09 49.8507 1288.61 49.8875C1289.14 49.9243 1289.68 49.9979 1290.19 50.1268C1290.71 50.2557 1291.22 50.4398 1291.7 50.6976C1292.66 51.2131 1293.4 52.0232 1293.95 52.9069C1293.21 52.1705 1292.42 51.4893 1291.5 51.0842C1290.58 50.6792 1289.59 50.5135 1288.55 50.4398C1288.04 50.403 1287.54 50.3846 1287.05 50.4398C1286.55 50.4951 1286.05 50.6055 1285.57 50.7528C1284.61 51.0658 1283.68 51.5077 1282.81 52.0968H1282.83Z" fill="#FD9E38"/>
<path d="M1810.94 442.284C1762.48 442.284 1716.14 410.579 1681.43 352.804C1644.39 291.108 1565.61 295.343 1564.82 295.398L1563.86 280.3C1567.47 280.08 1652.68 275.513 1694.41 345.016C1730.37 404.908 1779.03 434.33 1827.97 425.658C1870.26 418.183 1905.69 382.373 1914.14 338.591C1923.53 289.893 1951 251.137 1993.56 226.521C2038.19 200.708 2098.12 190.214 2171.66 195.295L2170.61 210.393C2032.93 200.874 1947.13 247.418 1928.99 341.463C1919.4 391.266 1878.93 432.01 1830.6 440.571C1824.03 441.731 1817.46 442.302 1810.92 442.302L1810.94 442.284Z" fill="#BDD0FB"/>
<path d="M1512.47 329.33L1470.14 329.049L1470.69 246.237L1513.02 246.517C1531.72 246.641 1546.83 261.931 1546.71 280.655L1546.61 295.642C1546.48 314.347 1531.19 329.454 1512.47 329.33Z" fill="#D2E0FF"/>
<path d="M1534.97 303.075L1562.59 300.092L1562.79 270.284L1535.21 266.934L1534.97 303.075Z" fill="#D2E0FF"/>
<path d="M1556.12 295.042L1585.69 295.238L1585.81 276.643L1556.24 276.447L1556.12 295.042Z" fill="#D2E0FF"/>
<path d="M1580.63 282.288L1584.96 282.316L1585.05 269.024L1580.72 268.995L1580.63 282.288Z" fill="#D2E0FF"/>
<path d="M1572.77 282.21L1577.1 282.238L1577.18 268.946L1572.86 268.917L1572.77 282.21Z" fill="#D2E0FF"/>
<path d="M1564.91 282.171L1569.23 282.199L1569.32 268.907L1564.99 268.878L1564.91 282.171Z" fill="#D2E0FF"/>
<path d="M1580.5 301.198L1584.82 301.227L1584.91 287.934L1580.59 287.905L1580.5 301.198Z" fill="#D2E0FF"/>
<path d="M1572.64 301.12L1576.96 301.148L1577.05 287.856L1572.72 287.827L1572.64 301.12Z" fill="#D2E0FF"/>
<path d="M1564.79 301.081L1569.12 301.109L1569.21 287.817L1564.88 287.788L1564.79 301.081Z" fill="#D2E0FF"/>
<path d="M1392.6 223.336L1449.36 223.704C1451.18 223.704 1452.88 224.754 1453.63 226.429C1455.86 231.419 1463.37 242.042 1487.73 247.381C1508.2 251.874 1509.03 322.61 1488.83 328.225C1465.84 334.633 1458.27 349.27 1456.01 355.732C1455.34 357.628 1453.54 358.88 1451.53 358.862L1389.39 358.457L1392.58 223.336H1392.6Z" fill="#BDD0FB"/>
<path d="M1382.78 265.737L1303.89 265.221C1298.46 265.184 1294.08 260.747 1294.11 255.316C1294.15 249.884 1298.59 245.502 1304.02 245.539L1382.91 246.055L1382.78 265.737Z" fill="#91B3FA"/>
<path d="M1382.34 332.697L1303.45 332.182C1298.02 332.145 1293.64 327.708 1293.67 322.277C1293.71 316.845 1298.15 312.463 1303.58 312.5L1382.47 313.016L1382.34 332.697Z" fill="#91B3FA"/>
<path d="M1349.05 290.628C1349.31 250.86 1359.48 218.345 1374.17 215.197L1375.73 214.902L1409.13 215.123C1409.89 215.123 1410.62 215.326 1411.3 215.639C1414.16 216.928 1415.72 220.058 1415.37 223.169C1414.3 233.093 1406.85 261.023 1406.68 287.277C1406.5 314.95 1413.51 348.495 1414.3 359.137C1414.51 361.862 1413.25 364.55 1410.94 366.004C1410.05 366.557 1409.09 366.943 1408.12 366.943L1374.72 366.722H1373.21C1358.57 363.371 1348.78 330.415 1349.04 290.647L1349.05 290.628Z" fill="#D2E0FF"/>
<path d="M1390.46 296.777L1349.46 296.501C1349.46 296.501 1349.02 290.83 1349.04 288.934C1349.05 286.872 1349.64 280.723 1349.64 280.723L1390.55 280.999C1394.92 281.036 1398.42 284.589 1398.4 288.934C1398.36 293.298 1394.81 296.796 1390.46 296.777Z" fill="#91B3FA"/>
<path d="M27.8558 446.518C14.1945 443.922 0.12825 438.62 -12.9622 430.003C-36.6576 414.427 -75.3951 375.119 -68.5461 286.837C-60.8501 187.581 -189.693 168.894 -191 168.728L-188.956 153.723C-187.502 153.907 -152.852 158.786 -118.735 177.344C-72.3573 202.568 -49.7849 240.827 -53.4304 287.997C-59.3588 364.496 -30.1584 400.564 -4.62187 417.355C25.0388 436.852 59.7626 436.926 78.7079 426.947C106.601 412.236 117.832 381.25 124.552 362.728C125.823 359.212 126.927 356.192 127.995 353.652C158.558 280.853 201.88 297.368 247.724 314.84C284.381 328.815 325.917 344.648 375.131 326.66L380.323 340.874C325.807 360.795 279.521 343.157 242.33 328.98C195.252 311.048 166.843 300.203 141.951 359.506C141.03 361.697 139.999 364.569 138.784 367.884C131.806 387.105 118.845 422.897 85.7779 440.332C71.5643 447.826 50.2624 450.79 27.8926 446.518H27.8558Z" fill="#BDD0FB"/>
<path d="M510.325 240.992L473.779 250.492C470.299 251.395 467.611 254.046 466.433 257.434C464.408 263.307 458.129 273.194 438.945 282.528C420.147 291.679 435.796 357.039 456.675 357.26C477.148 357.481 487.956 366.116 492.927 371.971C495.578 375.082 499.739 376.389 503.697 375.358L544.847 364.661L510.325 240.992Z" fill="#BDD0FB"/>
<path d="M475.049 353.451L439.331 362.731C418.306 368.199 396.838 355.587 391.37 334.561C385.902 313.535 398.513 292.068 419.539 286.6L455.257 277.32L475.049 353.451Z" fill="#BDD0FB"/>
<path d="M406.136 345.424L378.648 349.456L371.522 322.041L397.482 312.191L406.136 345.424Z" fill="#BDD0FB"/>
<path d="M379.306 326.187L350.688 333.625L355.13 350.714L383.748 343.275L379.306 326.187Z" fill="#BDD0FB"/>
<path d="M353.842 325.298L349.655 326.387L352.832 338.611L357.02 337.522L353.842 325.298Z" fill="#BDD0FB"/>
<path d="M361.438 323.322L357.25 324.41L360.428 336.634L364.615 335.546L361.438 323.322Z" fill="#BDD0FB"/>
<path d="M369.056 321.337L364.868 322.426L368.045 334.65L372.233 333.561L369.056 321.337Z" fill="#BDD0FB"/>
<path d="M358.382 342.677L354.194 343.766L357.372 355.99L361.559 354.901L358.382 342.677Z" fill="#BDD0FB"/>
<path d="M365.964 340.716L361.776 341.805L364.954 354.029L369.141 352.94L365.964 340.716Z" fill="#BDD0FB"/>
<path d="M373.578 338.72L369.39 339.809L372.567 352.033L376.755 350.944L373.578 338.72Z" fill="#BDD0FB"/>
<path d="M550.48 375.008C535.199 378.985 514.265 349.306 503.716 308.728C493.166 268.149 496.995 232.044 512.277 228.067L544.607 219.672L582.811 366.613L549.965 375.156" fill="#D2E0FF"/>
<path d="M591.372 285.955C601.922 326.533 598.092 362.638 582.811 366.615C567.53 370.592 546.596 340.912 536.046 300.334C525.496 259.755 529.326 223.651 544.607 219.674C559.889 215.697 580.823 245.376 591.372 285.955Z" fill="#BDD0FB"/>
<path d="M557.661 293.76C559.631 301.308 558.434 308.157 555.01 309.041C551.585 309.925 547.222 304.53 545.252 296.982C543.282 289.433 544.479 282.584 547.903 281.7C551.328 280.817 555.691 286.211 557.661 293.76Z" fill="#91B3FA"/>
<path d="M583.142 288.092C585.113 295.64 583.916 302.489 580.491 303.373C577.067 304.257 572.703 298.862 570.733 291.314C568.763 283.765 569.96 276.916 573.384 276.032C576.809 275.149 581.172 280.543 583.142 288.092Z" fill="#91B3FA"/>
<defs>
<clipPath id="clip0_392_2949">
<rect width="233.824" height="233.824" fill="white" transform="translate(838.784 171.105)"/>
</clipPath>
</defs>
</svg>
