<svg width="124" height="50" viewBox="0 0 124 50" fill="none" xmlns="http://www.w3.org/2000/svg">
<g id="click">
<g id="Group">
<path id="Vector" d="M65.3604 36.2635C64.2508 36.2635 63.2278 36.0932 62.2884 35.7512C61.3506 35.4092 60.5814 34.8985 59.8989 34.3011C59.2164 33.6186 58.7042 32.851 58.2771 31.8265C57.935 30.802 57.6797 29.6939 57.6797 28.3274V27.73C57.6797 26.4501 57.8499 25.4256 58.2771 24.4026C58.7042 23.4648 59.2149 22.6956 59.8989 22.0131C60.5814 21.3307 61.4342 20.9035 62.2884 20.563C63.2263 20.221 64.1657 20.0508 65.1902 20.0508C66.2998 20.0508 67.2376 20.221 68.0919 20.4779C68.9462 20.7348 69.6271 21.1604 70.2245 21.6727C70.8219 22.1849 71.249 22.7823 71.5895 23.4648C71.9299 24.1473 72.1017 24.9149 72.272 25.6825H68.3473C68.0919 25 67.7499 24.4026 67.3228 23.9755C66.8956 23.5484 66.2131 23.3781 65.2753 23.3781C64.763 23.3781 64.3374 23.4633 63.8252 23.6335C63.3981 23.8037 62.9725 24.0606 62.6304 24.4011C62.2884 24.7416 62.0331 25.2538 61.8628 25.7661C61.6926 26.2783 61.6075 26.9608 61.6075 27.7284V28.3258C61.6075 29.1786 61.6926 29.861 61.8628 30.4584C62.0331 31.0558 62.29 31.5681 62.6304 31.9085C62.9725 32.2505 63.3129 32.591 63.8252 32.7613C64.2523 32.9315 64.763 33.0166 65.2753 33.0166C66.0429 33.0166 66.7254 32.8464 67.2376 32.4192C67.7499 31.9921 68.1755 31.4814 68.3473 30.7122H72.272C72.1868 31.565 71.9299 32.3341 71.5895 33.0166C71.249 33.6991 70.7368 34.2965 70.1394 34.8087C69.542 35.321 68.8595 35.6615 68.0068 35.9184C67.3243 36.1737 66.3849 36.2604 65.362 36.2604L65.3604 36.2635Z" fill="black"/>
<path id="Vector_2" d="M80.2913 36.0935C79.3535 36.0935 78.5843 36.0083 77.987 35.8381C77.3045 35.6679 76.7922 35.411 76.3651 34.9854C75.9379 34.5598 75.5975 34.0475 75.4272 33.2784C75.257 32.5959 75.1719 31.7431 75.1719 30.6335V15.4453H79.0115V30.2064C79.0115 30.7186 79.0115 31.1442 79.0966 31.4011C79.1817 31.7431 79.2668 31.9985 79.4386 32.1687C79.6088 32.339 79.7806 32.5107 80.1211 32.5959C80.3764 32.681 80.7185 32.7661 81.1456 32.7661H81.743C81.9132 32.7661 82.085 32.7661 82.1701 32.681V35.9232C82.085 35.9232 81.9148 35.9232 81.743 36.0083C81.5727 36.0083 81.401 36.0083 81.3158 36.0935H80.2913Z" fill="black"/>
<path id="Vector_3" d="M84.9846 20.391H88.8242V35.9197H84.9846V20.391ZM86.947 18.7691C86.2645 18.7691 85.6671 18.5989 85.2399 18.1717C84.8128 17.7446 84.6426 17.2339 84.6426 16.6365C84.6426 16.0391 84.8128 15.5269 85.2399 15.1013C85.6671 14.6757 86.2645 14.5039 86.947 14.5039C87.6294 14.5039 88.2268 14.6741 88.6539 15.1013C89.0811 15.5284 89.2513 16.0391 89.2513 16.6365C89.2513 17.2339 89.0811 17.7461 88.6539 18.1717C88.2268 18.5973 87.6294 18.7691 86.947 18.7691Z" fill="black"/>
<path id="Vector_4" d="M99.4893 36.2635C98.3797 36.2635 97.3567 36.0932 96.4173 35.7512C95.4795 35.4092 94.7103 34.8985 94.0279 34.3011C93.3454 33.6186 92.8331 32.851 92.406 31.8265C92.0639 30.802 91.8086 29.6939 91.8086 28.3274V27.73C91.8086 26.4501 91.9788 25.4256 92.406 24.4026C92.8331 23.4648 93.3438 22.6956 94.0279 22.0131C94.7103 21.3307 95.5631 20.9035 96.4173 20.563C97.3552 20.221 98.2946 20.0508 99.3191 20.0508C100.429 20.0508 101.367 20.221 102.221 20.4779C103.075 20.7348 103.756 21.1604 104.353 21.6727C104.951 22.1849 105.378 22.7823 105.718 23.4648C106.059 24.1473 106.231 24.9149 106.401 25.6825H102.476C102.221 25 101.879 24.4026 101.452 23.9755C101.025 23.5484 100.342 23.3781 99.4042 23.3781C98.8919 23.3781 98.4664 23.4633 97.9541 23.6335C97.527 23.8037 97.1014 24.0606 96.7594 24.4011C96.4173 24.7416 96.162 25.2538 95.9918 25.7661C95.8215 26.2783 95.7364 26.9608 95.7364 27.7284V28.3258C95.7364 29.1786 95.8215 29.861 95.9918 30.4584C96.162 31.0558 96.4189 31.5681 96.7594 31.9085C97.1014 32.2505 97.4418 32.591 97.9541 32.7613C98.3812 32.9315 98.8919 33.0166 99.4042 33.0166C100.172 33.0166 100.854 32.8464 101.367 32.4192C101.879 31.9921 102.304 31.4814 102.476 30.7122H106.401C106.316 31.565 106.059 32.3341 105.718 33.0166C105.378 33.6991 104.866 34.2965 104.268 34.8087C103.671 35.321 102.988 35.6615 102.136 35.9184C101.453 36.1737 100.514 36.2604 99.4909 36.2604L99.4893 36.2635Z" fill="black"/>
<path id="Vector_5" d="M109.133 35.9232V15.4453H113.058V26.7939L118.689 20.3946H123.211L117.409 26.9641L123.809 35.9232H119.201L114.765 29.609L113.058 31.4862V35.9232H109.133Z" fill="black"/>
<path id="Vector_6" fill-rule="evenodd" clip-rule="evenodd" d="M8.5319 8.53194C2.81508 14.1637 0 19.5401 0 24.9149V25C0 30.3748 2.81508 35.8363 8.5319 41.4681C14.1636 47.0998 19.6235 49.9149 24.9999 50H25.085C30.4598 50 35.9213 47.1849 41.553 41.4681C52.8164 30.2046 52.9015 19.8805 41.553 8.44683C35.8361 2.81509 30.3762 0 24.9999 0C19.6235 0 14.1636 2.81509 8.5319 8.53194ZM15.9557 33.9591C9.72664 27.73 9.81176 22.0982 15.9557 15.9558C22.0997 9.81181 27.7314 9.72669 33.9589 15.9558C40.188 22.1849 40.1029 27.8166 33.9589 33.9591C30.8869 37.0311 27.9001 38.5663 24.9999 38.5663C22.013 38.6514 19.1128 37.1162 15.9557 33.9591Z" fill="url(#paint0_linear_1906_130334)"/>
</g>
</g>
<defs>
<linearGradient id="paint0_linear_1906_130334" x1="8.3369" y1="42.5127" x2="40.2021" y2="9.09389" gradientUnits="userSpaceOnUse">
<stop stop-color="#0078FF"/>
<stop offset="1" stop-color="#00DEFF"/>
</linearGradient>
</defs>
</svg>
