<svg width="124" height="50" viewBox="0 0 124 50" fill="none" xmlns="http://www.w3.org/2000/svg">
<g id="click">
<g id="Group">
<path id="Vector" d="M65.3594 36.2635C64.2498 36.2635 63.2268 36.0932 62.2875 35.7512C61.3496 35.4092 60.5805 34.8985 59.898 34.3011C59.2155 33.6186 58.7032 32.851 58.2761 31.8265C57.9341 30.802 57.6787 29.6939 57.6787 28.3274V27.73C57.6787 26.4501 57.8489 25.4256 58.2761 24.4026C58.7032 23.4648 59.2139 22.6956 59.898 22.0131C60.5805 21.3307 61.4332 20.9035 62.2875 20.563C63.2253 20.221 64.1647 20.0508 65.1892 20.0508C66.2988 20.0508 67.2367 20.221 68.0909 20.4779C68.9452 20.7348 69.6262 21.1604 70.2235 21.6727C70.8209 22.1849 71.248 22.7823 71.5885 23.4648C71.929 24.1473 72.1008 24.9149 72.271 25.6825H68.3463C68.0909 25 67.7489 24.4026 67.3218 23.9755C66.8946 23.5484 66.2122 23.3781 65.2743 23.3781C64.7621 23.3781 64.3365 23.4633 63.8242 23.6335C63.3971 23.8037 62.9715 24.0606 62.6295 24.4011C62.2875 24.7416 62.0321 25.2538 61.8619 25.7661C61.6916 26.2783 61.6065 26.9608 61.6065 27.7284V28.3258C61.6065 29.1786 61.6916 29.861 61.8619 30.4584C62.0321 31.0558 62.289 31.5681 62.6295 31.9085C62.9715 32.2505 63.312 32.591 63.8242 32.7613C64.2513 32.9315 64.7621 33.0166 65.2743 33.0166C66.0419 33.0166 66.7244 32.8464 67.2367 32.4192C67.7489 31.9921 68.1745 31.4814 68.3463 30.7122H72.271C72.1859 31.565 71.929 32.3341 71.5885 33.0166C71.248 33.6991 70.7358 34.2965 70.1384 34.8087C69.541 35.321 68.8585 35.6615 68.0058 35.9184C67.3233 36.1737 66.3839 36.2604 65.361 36.2604L65.3594 36.2635Z" fill="black"/>
<path id="Vector_2" d="M80.2923 36.0935C79.3545 36.0935 78.5853 36.0083 77.9879 35.8381C77.3054 35.6679 76.7932 35.411 76.3661 34.9854C75.9389 34.5598 75.5984 34.0475 75.4282 33.2784C75.258 32.5959 75.1729 31.7431 75.1729 30.6335V15.4453H79.0124V30.2064C79.0124 30.7186 79.0124 31.1442 79.0976 31.4011C79.1827 31.7431 79.2678 31.9985 79.4396 32.1687C79.6098 32.339 79.7816 32.5107 80.1221 32.5959C80.3774 32.681 80.7194 32.7661 81.1466 32.7661H81.7439C81.9142 32.7661 82.086 32.7661 82.1711 32.681V35.9232C82.086 35.9232 81.9157 35.9232 81.7439 36.0083C81.5737 36.0083 81.4019 36.0083 81.3168 36.0935H80.2923Z" fill="black"/>
<path id="Vector_3" d="M84.9846 20.391H88.8242V35.9197H84.9846V20.391ZM86.947 18.7691C86.2645 18.7691 85.6671 18.5989 85.2399 18.1717C84.8128 17.7446 84.6426 17.2339 84.6426 16.6365C84.6426 16.0391 84.8128 15.5269 85.2399 15.1013C85.6671 14.6757 86.2645 14.5039 86.947 14.5039C87.6294 14.5039 88.2268 14.6741 88.6539 15.1013C89.0811 15.5284 89.2513 16.0391 89.2513 16.6365C89.2513 17.2339 89.0811 17.7461 88.6539 18.1717C88.2268 18.5973 87.6294 18.7691 86.947 18.7691Z" fill="black"/>
<path id="Vector_4" d="M99.4903 36.2635C98.3807 36.2635 97.3577 36.0932 96.4183 35.7512C95.4805 35.4092 94.7113 34.8985 94.0288 34.3011C93.3463 33.6186 92.8341 32.851 92.4069 31.8265C92.0649 30.802 91.8096 29.6939 91.8096 28.3274V27.73C91.8096 26.4501 91.9798 25.4256 92.4069 24.4026C92.8341 23.4648 93.3448 22.6956 94.0288 22.0131C94.7113 21.3307 95.564 20.9035 96.4183 20.563C97.3562 20.221 98.2955 20.0508 99.3201 20.0508C100.43 20.0508 101.368 20.221 102.222 20.4779C103.076 20.7348 103.757 21.1604 104.354 21.6727C104.952 22.1849 105.379 22.7823 105.719 23.4648C106.06 24.1473 106.232 24.9149 106.402 25.6825H102.477C102.222 25 101.88 24.4026 101.453 23.9755C101.026 23.5484 100.343 23.3781 99.4052 23.3781C98.8929 23.3781 98.4673 23.4633 97.9551 23.6335C97.5279 23.8037 97.1023 24.0606 96.7603 24.4011C96.4183 24.7416 96.163 25.2538 95.9927 25.7661C95.8225 26.2783 95.7374 26.9608 95.7374 27.7284V28.3258C95.7374 29.1786 95.8225 29.861 95.9927 30.4584C96.163 31.0558 96.4199 31.5681 96.7603 31.9085C97.1023 32.2505 97.4428 32.591 97.9551 32.7613C98.3822 32.9315 98.8929 33.0166 99.4052 33.0166C100.173 33.0166 100.855 32.8464 101.368 32.4192C101.88 31.9921 102.305 31.4814 102.477 30.7122H106.402C106.317 31.565 106.06 32.3341 105.719 33.0166C105.379 33.6991 104.867 34.2965 104.269 34.8087C103.672 35.321 102.989 35.6615 102.137 35.9184C101.454 36.1737 100.515 36.2604 99.4918 36.2604L99.4903 36.2635Z" fill="black"/>
<path id="Vector_5" d="M109.132 35.9232V15.4453H113.057V26.7939L118.688 20.3946H123.21L117.408 26.9641L123.808 35.9232H119.2L114.764 29.609L113.057 31.4862V35.9232H109.132Z" fill="black"/>
<path id="Vector_6" fill-rule="evenodd" clip-rule="evenodd" d="M8.5319 8.53194C2.81508 14.1637 0 19.5401 0 24.9149V25C0 30.3748 2.81508 35.8363 8.5319 41.4681C14.1636 47.0998 19.6235 49.9149 24.9999 50H25.085C30.4598 50 35.9213 47.1849 41.553 41.4681C52.8164 30.2046 52.9015 19.8805 41.553 8.44683C35.8361 2.81509 30.3762 0 24.9999 0C19.6235 0 14.1636 2.81509 8.5319 8.53194ZM15.9557 33.9591C9.72664 27.73 9.81176 22.0982 15.9557 15.9558C22.0997 9.81181 27.7314 9.72669 33.9589 15.9558C40.188 22.1849 40.1029 27.8166 33.9589 33.9591C30.8869 37.0311 27.9001 38.5663 24.9999 38.5663C22.013 38.6514 19.1128 37.1162 15.9557 33.9591Z" fill="url(#paint0_linear_1890_107956)"/>
</g>
</g>
<defs>
<linearGradient id="paint0_linear_1890_107956" x1="8.3369" y1="42.5127" x2="40.2021" y2="9.09389" gradientUnits="userSpaceOnUse">
<stop stop-color="#0078FF"/>
<stop offset="1" stop-color="#00DEFF"/>
</linearGradient>
</defs>
</svg>
