<svg width="18" height="18" viewBox="0 0 18 18" fill="none" xmlns="http://www.w3.org/2000/svg">
<g id="x">
<path id="Subtract" fill-rule="evenodd" clip-rule="evenodd" d="M16.5 9C16.5 13.1421 13.1421 16.5 9 16.5C4.85786 16.5 1.5 13.1421 1.5 9C1.5 4.85786 4.85786 1.5 9 1.5C13.1421 1.5 16.5 4.85786 16.5 9ZM11.5191 11.519C11.2994 11.7387 10.9433 11.7387 10.7236 11.519L9.00001 9.79545L7.27642 11.519C7.05676 11.7387 6.7006 11.7387 6.48093 11.519C6.26126 11.2994 6.26126 10.9432 6.48093 10.7235L8.20451 8.99995L6.48094 7.27638C6.26127 7.05671 6.26127 6.70056 6.48094 6.48089C6.70061 6.26122 7.05677 6.26122 7.27644 6.48089L9.00001 8.20446L10.7236 6.4809C10.9432 6.26122 11.2994 6.26123 11.5191 6.4809C11.7387 6.70057 11.7387 7.05672 11.5191 7.27639L9.7955 8.99995L11.5191 10.7235C11.7387 10.9432 11.7387 11.2994 11.5191 11.519Z" fill="#A7AABC"/>
</g>
</svg>
