<svg width="78" height="16" viewBox="0 0 78 16" fill="none" xmlns="http://www.w3.org/2000/svg">
<g clip-path="url(#clip0_1875_111877)">
<path d="M15.0573 1.87529C13.5478 0.371236 11.5852 0 8.9326 0C6.28004 0 4.31673 0.367141 2.8079 1.87529C1.29908 3.38207 0.932617 5.34744 0.932617 8C0.932617 10.6526 1.29839 12.6172 2.8079 14.1247C4.31673 15.6329 6.27731 16 8.9326 16C11.5879 16 13.5485 15.6329 15.0573 14.1247C16.5668 12.6166 16.9326 10.6526 16.9326 8C16.9326 5.34744 16.5702 3.38275 15.0573 1.87529Z" fill="#ED1C24"/>
<path d="M7.23713 7.58866C6.91981 7.27133 6.84269 6.85847 6.84269 6.30025C6.84269 5.74203 6.91981 5.32917 7.23713 5.01252C7.55445 4.6952 7.96663 4.61809 8.52485 4.61809C9.08307 4.61809 9.49525 4.69588 9.81325 5.01252C10.1313 5.32917 10.2077 5.74203 10.2077 6.30025C10.2077 6.85847 10.1306 7.27133 9.81325 7.58866C9.49593 7.90598 9.08375 7.9831 8.52485 7.9831C8.46207 7.9831 8.40065 7.98173 8.34128 7.97968L9.8542 9.49261C10.3244 9.38137 10.7222 9.18211 11.0641 8.84021C11.6899 8.21512 11.8414 7.40099 11.8414 6.30093C11.8414 5.20087 11.6913 4.38675 11.0641 3.76165C10.4383 3.1386 9.62491 2.98438 8.52485 2.98438C7.42479 2.98438 6.61135 3.13655 5.98626 3.76165C5.36048 4.38675 5.20898 5.20087 5.20898 6.30093V13.0112H6.84337V9.50625L10.3483 13.0112H12.6596L7.23781 7.58934L7.23713 7.58866Z" fill="white"/>
<path d="M23.059 9.26686H22.7089V12.7104H20.9326V4.3125H24.3645C26.1647 4.3125 27.3009 5.35182 27.3009 6.78968C27.3009 8.07058 26.3947 9.02529 24.9445 9.23069L27.4456 12.7104H25.4516L23.059 9.26686ZM22.7089 7.99825H24.316C25.1015 7.99825 25.5485 7.58743 25.5485 6.94732C25.5485 6.30721 25.1015 5.88411 24.316 5.88411H22.7089V7.99893V7.99825Z" fill="black"/>
<path d="M31.1472 11.379C31.9326 11.379 32.3312 11.1012 32.6089 10.5935L33.9744 11.4998C33.479 12.2245 32.6574 12.8653 31.0987 12.8653C29.0324 12.8653 27.6914 11.4274 27.6914 9.5303C27.6914 7.63317 29.1531 6.19531 30.9779 6.19531C33.032 6.19531 34.2522 7.80241 34.2522 9.39722C34.2522 9.67497 34.2399 9.91654 34.216 10.0742H29.4432C29.6486 10.9081 30.301 11.379 31.1472 11.379ZM32.5727 8.90179C32.4035 8.06787 31.848 7.54855 31.0264 7.54855C30.2048 7.54855 29.6008 8.0317 29.4193 8.90179H32.5727Z" fill="black"/>
<path d="M41.5158 3.87568V12.7082H39.8602V12.0558C39.3887 12.5636 38.7247 12.8652 37.903 12.8652C36.0667 12.8652 34.7373 11.4273 34.7373 9.53021C34.7373 7.63308 36.0305 6.19523 37.8546 6.19523C38.6155 6.19523 39.2563 6.44908 39.7271 6.89607V3.875H41.5158V3.87568ZM39.8002 9.53089C39.8002 8.49157 39.1355 7.76684 38.1569 7.76684C37.1783 7.76684 36.5136 8.51613 36.5136 9.53089C36.5136 10.5456 37.2022 11.2827 38.1569 11.2827C39.1116 11.2827 39.8002 10.5695 39.8002 9.53089Z" fill="black"/>
<path d="M50.275 12.7104L49.8519 6.92275L48.0394 12.4326H46.5531L44.7406 6.91047L44.3059 12.7104H42.6504L43.2543 4.3125H44.9338V4.32478L45.3446 4.3125L47.3018 10.2455L49.2473 4.3125L49.6581 4.32478V4.3125H51.3253L51.9415 12.7104H50.2744H50.275Z" fill="black"/>
<path d="M56.1335 11.379C56.919 11.379 57.3175 11.1012 57.5952 10.5935L58.9608 11.4998C58.4653 12.2245 57.6437 12.8653 56.085 12.8653C54.0187 12.8653 52.6777 11.4274 52.6777 9.5303C52.6777 7.63317 54.1395 6.19531 55.9643 6.19531C58.0183 6.19531 59.2385 7.80241 59.2385 9.39722C59.2385 9.67497 59.2262 9.91654 59.2023 10.0742H54.4295C54.6349 10.9081 55.2873 11.379 56.1335 11.379ZM57.5591 8.90179C57.3898 8.06787 56.8343 7.54855 56.0127 7.54855C55.1911 7.54855 54.5871 8.0317 54.4056 8.90179H57.5591Z" fill="black"/>
<path d="M66.5011 3.87568V12.7082H64.8456V12.0558C64.374 12.5636 63.71 12.8652 62.8884 12.8652C61.052 12.8652 59.7227 11.4273 59.7227 9.53021C59.7227 7.63308 61.0158 6.19523 62.8399 6.19523C63.6008 6.19523 64.2416 6.44908 64.7125 6.89607V3.875H66.5011V3.87568ZM64.7855 9.53089C64.7855 8.49157 64.1208 7.76684 63.1423 7.76684C62.1637 7.76684 61.499 8.51613 61.499 9.53089C61.499 10.5456 62.1876 11.2827 63.1423 11.2827C64.097 11.2827 64.7855 10.5695 64.7855 9.53089Z" fill="black"/>
<path d="M67.4336 4.27617C67.4336 3.62378 67.9529 3.14062 68.606 3.14062C69.2591 3.14062 69.7661 3.62378 69.7661 4.27617C69.7661 4.92856 69.2584 5.41172 68.606 5.41172C67.9536 5.41172 67.4336 4.94016 67.4336 4.27617ZM67.6997 6.34254H69.4884V12.7102H67.6997V6.34254Z" fill="black"/>
<path d="M77.0685 6.34154V12.7092H75.4129V12.0083C74.9537 12.5522 74.289 12.8661 73.4558 12.8661C71.6194 12.8661 70.29 11.4283 70.29 9.53117C70.29 7.63404 71.6194 6.30469 73.4558 6.30469C74.2897 6.30469 74.9544 6.59472 75.4129 7.11404V6.34086H77.0685V6.34154ZM75.3529 9.53117C75.3529 8.49184 74.6882 7.76711 73.7096 7.76711C72.731 7.76711 72.0664 8.51641 72.0664 9.53117C72.0664 10.5459 72.7549 11.2829 73.7096 11.2829C74.6643 11.2829 75.3529 10.5698 75.3529 9.53117Z" fill="black"/>
</g>
<defs>
<clipPath id="clip0_1875_111877">
<rect width="76.1356" height="16" fill="white" transform="translate(0.932617)"/>
</clipPath>
</defs>
</svg>
