<svg width="20" height="14" viewBox="0 0 20 14" fill="none" xmlns="http://www.w3.org/2000/svg">
<g id="filter">
<path id="combo shape" fill-rule="evenodd" clip-rule="evenodd" d="M7 6C8.65685 6 10 4.65685 10 3C10 1.34315 8.65685 0 7 0C5.60212 0 4.42755 0.95608 4.09451 2.25H1C0.585786 2.25 0.25 2.58579 0.25 3C0.25 3.41421 0.585786 3.75 1 3.75H4.09451C4.42755 5.04392 5.60212 6 7 6ZM12.25 3C12.25 2.58579 12.5858 2.25 13 2.25H19C19.4142 2.25 19.75 2.58579 19.75 3C19.75 3.41421 19.4142 3.75 19 3.75H13C12.5858 3.75 12.25 3.41421 12.25 3ZM15.9055 11.75C15.5725 13.0439 14.3979 14 13 14C11.3431 14 10 12.6569 10 11C10 9.34315 11.3431 8 13 8C14.3979 8 15.5725 8.95608 15.9055 10.25H19C19.4142 10.25 19.75 10.5858 19.75 11C19.75 11.4142 19.4142 11.75 19 11.75H15.9055ZM0.25 11C0.25 10.5858 0.585786 10.25 1 10.25H7C7.41421 10.25 7.75 10.5858 7.75 11C7.75 11.4142 7.41421 11.75 7 11.75H1C0.585786 11.75 0.25 11.4142 0.25 11Z" fill="#1977F1"/>
</g>
</svg>
