<svg width="17" height="16" viewBox="0 0 17 16" fill="none" xmlns="http://www.w3.org/2000/svg">
<g id="UniqIcons/health/solid/hospital">
<path id="Vector" fill-rule="evenodd" clip-rule="evenodd" d="M14.9263 13.7055H13.641V3.9063C13.641 2.48676 12.4902 1.33594 11.0708 1.33594H5.93013C4.51059 1.33594 3.35995 2.48676 3.35995 3.9063V13.7055H2.07468C1.80856 13.7055 1.59277 13.9212 1.59277 14.1874C1.59277 14.4535 1.80856 14.6693 2.07468 14.6693H14.9263C15.1924 14.6693 15.4082 14.4535 15.4082 14.1874C15.4082 13.9212 15.1924 13.7055 14.9263 13.7055ZM5.41776 3.4047C5.50504 3.31761 5.62557 3.26357 5.75872 3.26357H7.62785C7.89397 3.26357 8.10976 3.47936 8.10976 3.74548C8.10976 3.87863 8.0559 3.99915 7.96862 4.08643C7.88134 4.17371 7.761 4.22757 7.62785 4.22757H5.75872C5.49242 4.22757 5.27663 4.01178 5.27663 3.74548C5.27663 3.61251 5.33048 3.49199 5.41776 3.4047ZM5.41776 5.06715C5.50504 4.98005 5.62557 4.92601 5.75872 4.92601H7.62785C7.89397 4.92601 8.10976 5.1418 8.10976 5.40792C8.10976 5.54088 8.0559 5.66141 7.96862 5.74869C7.88134 5.83578 7.761 5.88982 7.62785 5.88982H5.75872C5.49242 5.88982 5.27663 5.67403 5.27663 5.40792C5.27663 5.27495 5.33048 5.15443 5.41776 5.06715ZM5.27663 7.07017C5.27663 6.93702 5.33048 6.81668 5.41776 6.7294C5.50504 6.64212 5.62557 6.58827 5.75872 6.58827H7.62785C7.89397 6.58827 8.10976 6.80406 8.10976 7.07017C8.10976 7.20332 8.0559 7.32385 7.96862 7.41094C7.88134 7.49823 7.761 7.55208 7.62785 7.55208H5.75872C5.49242 7.55208 5.27663 7.33648 5.27663 7.07017ZM10.4281 13.7055H6.57267V10.9745C6.57267 9.90981 7.43583 9.04683 8.50048 9.04683C9.56514 9.04683 10.4281 9.90981 10.4281 10.9745V13.7055ZM11.583 7.41094C11.4959 7.49823 11.3754 7.55208 11.2423 7.55208H9.37312C9.10682 7.55208 8.89121 7.33648 8.89121 7.07017C8.89121 6.93702 8.94507 6.81668 9.03235 6.7294C9.11944 6.64212 9.23997 6.58827 9.37312 6.58827H11.2423C11.5086 6.58827 11.7242 6.80406 11.7242 7.07017C11.7242 7.20332 11.6703 7.32385 11.583 7.41094ZM11.583 5.74869C11.4959 5.83578 11.3754 5.88982 11.2423 5.88982H9.37312C9.10682 5.88982 8.89121 5.67403 8.89121 5.40792C8.89121 5.27495 8.94507 5.15443 9.03235 5.06715C9.11963 4.97986 9.23997 4.92601 9.37312 4.92601H11.2423C11.5086 4.92601 11.7242 5.1418 11.7242 5.40792C11.7242 5.54088 11.6703 5.66141 11.583 5.74869ZM11.583 4.08643C11.4959 4.17371 11.3754 4.22757 11.2423 4.22757H9.37312C9.10682 4.22757 8.89121 4.01178 8.89121 3.74548C8.89121 3.61251 8.94507 3.49199 9.03235 3.4047C9.11944 3.31761 9.23997 3.26357 9.37312 3.26357H11.2423C11.5086 3.26357 11.7242 3.47936 11.7242 3.74548C11.7242 3.87863 11.6703 3.99915 11.583 4.08643Z" fill="#787B8D"/>
</g>
</svg>
