<svg width="16" height="16" viewBox="0 0 16 16" fill="none" xmlns="http://www.w3.org/2000/svg">
<path d="M5.5034 8.00667C5.5034 6.62478 6.62301 5.50424 8.0045 5.50424C9.38599 5.50424 10.5062 6.62478 10.5062 8.00667C10.5062 9.38855 9.38599 10.5091 8.0045 10.5091C6.62301 10.5091 5.5034 9.38855 5.5034 8.00667ZM4.15103 8.00667C4.15103 10.1356 5.87622 11.8612 8.0045 11.8612C10.1328 11.8612 11.858 10.1356 11.858 8.00667C11.858 5.87778 10.1328 4.15208 8.0045 4.15208C5.87622 4.15208 4.15103 5.87778 4.15103 8.00667ZM11.11 3.99925C11.1099 4.17741 11.1627 4.35159 11.2616 4.49977C11.3604 4.64794 11.501 4.76346 11.6656 4.8317C11.8301 4.89995 12.0112 4.91786 12.1859 4.88317C12.3606 4.84848 12.5211 4.76275 12.647 4.63682C12.773 4.5109 12.8589 4.35042 12.8937 4.1757C12.9285 4.00097 12.9107 3.81985 12.8427 3.65522C12.7746 3.49059 12.6592 3.34986 12.5111 3.25082C12.3631 3.15178 12.189 3.09888 12.0109 3.09881H12.0105C11.7718 3.09892 11.5428 3.19381 11.374 3.36264C11.2051 3.53147 11.1102 3.76044 11.11 3.99925ZM4.97268 14.1169C4.24102 14.0836 3.84335 13.9617 3.57907 13.8587C3.2287 13.7222 2.97871 13.5597 2.71587 13.2972C2.45303 13.0346 2.29033 12.7848 2.15453 12.4343C2.05151 12.1701 1.92964 11.7722 1.89638 11.0403C1.86 10.2491 1.85273 10.0114 1.85273 8.00673C1.85273 6.00209 1.8606 5.76506 1.89638 4.97313C1.9297 4.24126 2.05247 3.84413 2.15453 3.57911C2.29093 3.22864 2.45339 2.97858 2.71587 2.71567C2.97835 2.45275 3.2281 2.29001 3.57907 2.15417C3.84323 2.05112 4.24102 1.92921 4.97268 1.89594C5.76372 1.85955 6.00134 1.85228 8.0045 1.85228C10.0077 1.85228 10.2455 1.86015 11.0372 1.89594C11.7689 1.92927 12.1659 2.05208 12.4308 2.15417C12.7812 2.29001 13.0312 2.45311 13.294 2.71567C13.5569 2.97822 13.719 3.22864 13.8554 3.57911C13.9584 3.84335 14.0803 4.24126 14.1135 4.97313C14.1499 5.76506 14.1572 6.00209 14.1572 8.00673C14.1572 10.0114 14.1499 10.2484 14.1135 11.0403C14.0802 11.7722 13.9577 12.17 13.8554 12.4343C13.719 12.7848 13.5565 13.0349 13.294 13.2972C13.0316 13.5595 12.7812 13.7222 12.4308 13.8587C12.1667 13.9617 11.7689 14.0836 11.0372 14.1169C10.2462 14.1533 10.0086 14.1606 8.0045 14.1606C6.00044 14.1606 5.76348 14.1533 4.97268 14.1169ZM4.91055 0.54546C4.11165 0.581853 3.56574 0.708565 3.08899 0.89413C2.59526 1.08576 2.17729 1.34285 1.75962 1.75998C1.34194 2.17711 1.08559 2.59586 0.894016 3.08974C0.708505 3.56692 0.581829 4.11269 0.545447 4.91182C0.508465 5.71221 0.5 5.9681 0.5 8.00667C0.5 10.0452 0.508465 10.3011 0.545447 11.1015C0.581829 11.9007 0.708505 12.4464 0.894016 12.9236C1.08559 13.4172 1.342 13.8364 1.75962 14.2534C2.17723 14.6703 2.59526 14.927 3.08899 15.1192C3.56664 15.3048 4.11165 15.4315 4.91055 15.4679C5.71113 15.5043 5.96652 15.5133 8.0045 15.5133C10.0425 15.5133 10.2983 15.5049 11.0985 15.4679C11.8974 15.4315 12.443 15.3048 12.92 15.1192C13.4134 14.927 13.8317 14.6705 14.2494 14.2534C14.6671 13.8362 14.9229 13.4172 15.115 12.9236C15.3005 12.4464 15.4278 11.9006 15.4636 11.1015C15.4999 10.3005 15.5084 10.0452 15.5084 8.00667C15.5084 5.9681 15.4999 5.71221 15.4636 4.91182C15.4272 4.11263 15.3005 3.56662 15.115 3.08974C14.9229 2.59616 14.6664 2.17777 14.2494 1.75998C13.8324 1.34219 13.4134 1.08576 12.9206 0.89413C12.443 0.708565 11.8974 0.581252 11.0991 0.54546C10.2989 0.509068 10.0431 0.5 8.0051 0.5C5.96712 0.5 5.71113 0.508468 4.91055 0.54546Z" fill="#1977F1"/>
</svg>
