<svg width="22" height="17" viewBox="0 0 22 17" fill="none" xmlns="http://www.w3.org/2000/svg">
<g id="Layer 1">
<g id="Group">
<g id="Group_2">
<path id="Vector" d="M14.3762 11.2756L17.6174 14.5134C15.7766 15.9292 13.4671 16.764 10.9713 16.764C4.92384 16.764 0 11.8453 0 5.80422V0H4.51728V5.80422C4.51728 9.35782 7.41399 12.2515 10.9713 12.2515C12.2192 12.2515 13.3881 11.8961 14.3762 11.2756Z" fill="#787B8D"/>
<path id="Vector_2" d="M21.9431 0V5.80422C21.9431 8.29738 21.1018 10.6044 19.6845 12.4489L16.4434 9.21116C17.0701 8.22405 17.4259 7.05644 17.4259 5.80422V0H21.9431Z" fill="#787B8D"/>
</g>
<path id="Vector_3" d="M10.9717 9.32858C12.9177 9.32858 14.4952 7.75273 14.4952 5.80882C14.4952 3.86491 12.9177 2.28906 10.9717 2.28906C9.02576 2.28906 7.44824 3.86491 7.44824 5.80882C7.44824 7.75273 9.02576 9.32858 10.9717 9.32858Z" fill="#787B8D"/>
</g>
</g>
</svg>
