<svg width="131" height="38" viewBox="0 0 131 38" fill="none" xmlns="http://www.w3.org/2000/svg">
<g id="payme" clip-path="url(#clip0_1890_107965)">
<g id="Layer 1">
<g id="Layer 1-2">
<path id="Vector" d="M21.4076 3.75963C20.9495 3.01928 20.3537 2.37474 19.65 1.86085C18.941 1.37483 18.1623 0.998556 17.3418 0.74074C16.4499 0.449826 15.5301 0.254722 14.5964 0.160654C13.5059 0.0526496 12.4102 0.00213159 11.3127 0.0073576H1.81523C0.905894 -0.0780004 0.0993423 0.589186 0.0139836 1.49677C0.0139836 1.51245 0.0104996 1.52987 0.0104996 1.54554V17.0546C1.32746 19.8801 3.51369 22.2092 6.25039 23.7021V20.6065C6.16329 19.6031 6.90539 18.7182 7.90879 18.6311H7.91227H10.7622C14.6504 18.6311 17.617 17.8176 19.6622 16.1905C21.7073 14.5635 22.7455 12.1508 22.7769 8.95427C22.7804 8.03275 22.6723 7.11472 22.4546 6.21933C22.2368 5.35007 21.885 4.51914 21.4094 3.75963H21.4076ZM15.8419 11.6892C15.5109 12.2588 15.0179 12.7187 14.4274 13.0097C13.7863 13.3162 13.0948 13.4992 12.3858 13.5514C11.6071 13.649 10.8249 13.696 10.0393 13.6943H7.30431C6.64931 13.6943 6.23994 13.1629 6.23994 12.3843V6.02074C6.2051 5.49814 6.60054 5.04522 7.12314 5.00864C7.18411 5.00516 7.24334 5.0069 7.30257 5.01387H10.0375C10.9242 5.01387 11.7604 5.04 12.5443 5.09052C13.2446 5.12361 13.9309 5.29259 14.5668 5.58524C15.1521 5.84654 15.6416 6.28379 15.9621 6.83948C16.3262 7.58332 16.4917 8.40728 16.4464 9.23299C16.4656 10.0901 16.2548 10.9349 15.8384 11.684V11.6927L15.8419 11.6892ZM6.2591 24.634C3.91784 23.7892 1.78561 22.4478 0.0104996 20.7023V28.1581C-0.071375 28.7399 0.334514 29.2782 0.916347 29.3583C0.930283 29.3601 0.945961 29.3618 0.959897 29.3636H5.25222C6.39149 29.3636 6.2591 28.1476 6.2591 28.1476V24.634ZM65.2576 8.12856H61.5541C60.8242 8.08153 60.1657 8.56581 59.9967 9.27829L55.694 21.1309C55.694 21.1309 51.8946 10.3322 51.6107 9.49603C51.4452 8.70168 50.7501 8.12856 49.9383 8.11811H46.5292C45.3133 8.11811 45.3133 9.0675 45.4753 9.43855C45.6373 9.8096 50.3007 22.5924 52.1228 27.4839C52.4103 28.0867 52.6106 28.726 52.7203 29.3827C52.6019 30.0325 52.3563 30.6526 51.9991 31.2066C51.8598 31.4418 51.7013 31.6647 51.5236 31.872C55.0372 30.8268 59.1222 27.0188 61.1726 22.906C63.2438 17.2079 65.9683 9.60927 66.092 9.2208C66.2244 8.62329 66.2244 8.12856 65.2559 8.12856H65.2576ZM48.7503 33.0305C48.4332 33.0218 48.1162 32.9974 47.8009 32.9538C47.4107 32.8963 46.6703 32.9538 46.6703 33.6193V36.4692C46.6703 37.5614 47.2016 37.6381 47.4769 37.713C48.3566 37.9063 49.2555 38.0021 50.1544 37.9987C51.2187 38.0265 52.2744 37.8088 53.2412 37.3628C54.1244 36.9169 54.91 36.2967 55.5494 35.5389C56.274 34.7098 56.8872 33.7917 57.3733 32.804C57.8993 31.7536 58.3993 30.5917 58.8731 29.3183L59.4236 27.8079C58.3227 28.9002 53.459 33.4869 48.7485 33.0322L48.7503 33.0305ZM43.1462 11.5377C42.9442 11.0586 42.6689 10.6127 42.3292 10.2172C41.9861 9.8514 41.5958 9.53262 41.1708 9.26783C40.7109 8.95427 40.2214 8.68775 39.7075 8.47C39.1849 8.26792 38.6484 8.10592 38.1031 7.98572C37.4777 7.8481 36.8419 7.75578 36.2043 7.71048C35.5197 7.6408 34.755 7.60596 33.9066 7.60596C28.2468 7.60596 25.0241 9.39152 24.2384 12.9626C24.1113 13.4713 24.4196 13.9869 24.9283 14.1158C24.977 14.128 25.0258 14.1367 25.0746 14.1402H28.5604C29.5098 14.1402 29.5098 13.8458 29.8703 13.0288C30.0289 12.5846 30.3128 12.1944 30.6874 11.9087C31.5775 11.3338 32.6314 11.0638 33.6888 11.1387C34.6748 11.0377 35.666 11.2833 36.49 11.8321C37.1189 12.4191 37.4917 13.2326 37.5248 14.0932C37.5248 15.2708 37.1642 16.0494 35.7009 16.0494C32.2343 15.9258 28.5116 16.316 26.4125 17.5214C24.3098 18.8053 23.0556 21.1169 23.127 23.5801C23.1026 24.5225 23.2942 25.458 23.6879 26.3151C24.0572 27.0606 24.5938 27.7104 25.2558 28.2138C25.9491 28.78 26.7504 29.1998 27.611 29.4489C28.583 29.712 29.5864 29.8391 30.5933 29.8287C31.9486 29.8496 33.2969 29.658 34.5912 29.259C35.7357 28.7904 36.8175 28.1807 37.8104 27.4456V28.1111C37.8104 28.766 38.009 29.3548 38.7598 29.3548H42.7961C43.6131 29.3548 43.803 28.7748 43.803 28.0536V15.6209C43.8082 14.8457 43.7542 14.0705 43.641 13.304C43.5521 12.6961 43.3849 12.1038 43.1462 11.5377ZM37.6275 23.7508C37.6275 23.7508 36.5823 25.9353 32.8788 25.9353C31.9904 25.9754 31.1124 25.7332 30.372 25.242C29.7101 24.7281 29.3512 23.9128 29.4227 23.0767C29.339 21.9461 29.9627 20.88 30.9905 20.3992C32.4886 19.8244 34.0878 19.5561 35.6922 19.6101C36.6311 19.469 37.5073 20.1153 37.6484 21.0542C37.6624 21.1431 37.6676 21.2319 37.6676 21.3207L37.6293 23.7526L37.6275 23.7508Z" fill="#333333"/>
<path id="Vector_2" d="M129.935 15.7551C130.89 17.2898 130.89 19.2339 129.935 20.7703C128.986 22.2144 123.808 27.7418 122.1 29.5169C120.617 31.0551 118.614 32.6124 116.63 32.6124H75.5147C69.9489 32.6124 69.6162 30.7136 69.6162 26.4771V9.20167C69.6162 4.86061 70.8983 3.59766 74.7064 3.59766H116.724C118.69 3.59766 120.446 4.60453 122.422 6.63745C124.15 8.37596 129.251 14.729 129.935 15.7551Z" fill="#33CCCC"/>
<path id="Vector_3" d="M78.9536 10.2758V10.1713C78.9536 9.61033 78.9536 9.07031 78.0042 9.07031H74.5568C73.7502 9.07031 73.7119 9.50755 73.7119 10.1904V14.7492C75.0724 12.8557 76.8702 11.321 78.9536 10.2758Z" fill="white"/>
<path id="Vector_4" d="M102.041 26.7632V26.5158V15.5186C102.041 10.9162 100.009 8.61328 95.9444 8.61328C94.8138 8.62722 93.7077 8.95646 92.753 9.56267C91.7009 10.2194 90.7619 11.0399 89.971 11.9945C89.6122 10.9632 88.9171 10.0835 87.9956 9.49648C86.9487 8.91987 85.7623 8.63941 84.5673 8.68993C82.8096 8.6969 81.1025 9.28395 79.7141 10.3622C79.411 10.6654 73.7024 15.1109 73.7024 19.7464V26.7841C73.7024 27.0018 73.5892 27.8572 74.5473 27.8572H78.1271C79.2385 27.8572 79.134 27.1255 79.134 26.8224V15.4262C79.7315 14.6197 80.9579 12.6913 82.9803 12.6913C83.6388 12.6321 84.2781 12.9334 84.6527 13.4804C85.0586 14.2905 85.2363 15.198 85.1648 16.1021V24.9829V26.8067C85.1648 27.0245 85.0516 27.8798 86.0097 27.8798H89.553C90.6644 27.8798 90.5598 27.1482 90.5598 26.8451V26.5977V15.3914C91.2061 14.5849 92.4586 12.6565 94.4062 12.6565C95.0717 12.6025 95.7179 12.9021 96.1064 13.4456C96.5193 14.2539 96.7004 15.1615 96.629 16.0673V24.948V26.7719C96.629 26.9896 96.5158 27.845 97.4739 27.845H101.054C102.174 27.7875 102.041 27.0663 102.041 26.7719V26.7632Z" fill="white"/>
<path id="Vector_5" d="M121.786 22.2886C120.537 25.6455 117.253 27.8038 113.675 27.6174C108.205 27.6174 104.558 23.8947 104.558 18.3099C104.558 12.725 108.357 8.8125 113.485 8.8125C118.614 8.8125 122.033 12.3644 122.251 18.0921C122.251 18.8238 122.07 19.4701 121.15 19.4701H109.545C109.622 22.5377 111.094 24.2188 113.714 24.2188C115.135 24.2536 116.447 23.461 117.076 22.1858C117.321 21.827 117.732 21.6162 118.168 21.6249H121.159C121.488 21.6092 121.769 21.8636 121.784 22.1946C121.786 22.2398 121.784 22.2834 121.776 22.3287L121.784 22.2904L121.786 22.2886ZM113.505 12.354C111.329 12.354 109.857 13.8643 109.535 16.3519H117.323C117.124 14.1761 115.945 12.354 113.505 12.354Z" fill="white"/>
</g>
</g>
</g>
<defs>
<clipPath id="clip0_1890_107965">
<rect width="130.651" height="38" fill="white"/>
</clipPath>
</defs>
</svg>
