<svg width="63" height="24" viewBox="0 0 63 24" fill="none" xmlns="http://www.w3.org/2000/svg">
<g id="payme" clip-path="url(#clip0_1903_75819)">
<g id="Layer 1">
<g id="Layer 1-2">
<path id="Vector" d="M10.2776 4.68548C10.0577 4.33011 9.77174 4.02073 9.43393 3.77407C9.09361 3.54078 8.71985 3.36017 8.32601 3.23641C7.8979 3.09678 7.4564 3.00313 7.00821 2.95797C6.48477 2.90613 5.95883 2.88188 5.43204 2.88439H0.873261C0.436782 2.84342 0.0496374 3.16367 0.00866527 3.59931C0.00866527 3.60683 0.00699294 3.6152 0.00699294 3.62272V11.0671C0.639135 12.4233 1.68852 13.5413 3.00214 14.2578V12.772C2.96033 12.2904 3.31654 11.8656 3.79817 11.8238H3.79984H5.16781C7.03414 11.8238 8.45813 11.4333 9.43979 10.6523C10.4214 9.87135 10.9198 8.71326 10.9349 7.17891C10.9365 6.73658 10.8847 6.29593 10.7802 5.86614C10.6756 5.44889 10.5067 5.05005 10.2785 4.68548H10.2776ZM7.60607 8.49168C7.4472 8.76511 7.21057 8.98585 6.92711 9.12549C6.6194 9.27266 6.28744 9.36045 5.94712 9.38554C5.57335 9.43236 5.19791 9.45494 4.8208 9.4541H3.50802C3.19362 9.4541 2.99712 9.19907 2.99712 8.82531V5.77082C2.9804 5.51997 3.17021 5.30257 3.42106 5.28501C3.45033 5.28333 3.47876 5.28417 3.50719 5.28752H4.81997C5.24558 5.28752 5.64694 5.30006 6.02321 5.32431C6.35935 5.34019 6.6888 5.4213 6.994 5.56178C7.27495 5.6872 7.50991 5.89708 7.66377 6.16381C7.83853 6.52085 7.91796 6.91636 7.89622 7.3127C7.90542 7.72409 7.80424 8.12962 7.6044 8.48917V8.49335L7.60607 8.49168ZM3.00632 14.7052C1.88251 14.2997 0.859046 13.6558 0.00699294 12.818V16.3967C-0.0323069 16.676 0.16252 16.9344 0.441799 16.9729C0.448489 16.9737 0.456014 16.9745 0.462704 16.9754H2.52302C3.06987 16.9754 3.00632 16.3917 3.00632 16.3917V14.7052ZM31.3256 6.78257H29.5479C29.1976 6.75999 28.8815 6.99245 28.8004 7.33444L26.7351 13.0237C26.7351 13.0237 24.9114 7.84031 24.7751 7.43896C24.6956 7.05767 24.362 6.78257 23.9724 6.77755H22.336C21.7523 6.77755 21.7523 7.23326 21.8301 7.41136C21.9079 7.58947 24.1463 13.7252 25.0209 16.0731C25.1589 16.3625 25.255 16.6693 25.3077 16.9846C25.2509 17.2965 25.133 17.5941 24.9615 17.86C24.8946 17.9729 24.8186 18.0799 24.7333 18.1794C26.4198 17.6777 28.3806 15.8499 29.3648 13.8757C30.359 11.1406 31.6668 7.49331 31.7261 7.30684C31.7897 7.02004 31.7897 6.78257 31.3248 6.78257H31.3256ZM23.4021 18.7355C23.2499 18.7313 23.0977 18.7196 22.9464 18.6987C22.7591 18.6711 22.4037 18.6987 22.4037 19.0181V20.3861C22.4037 20.9103 22.6587 20.9471 22.7909 20.9831C23.2131 21.0759 23.6446 21.1219 24.076 21.1202C24.5869 21.1336 25.0937 21.0291 25.5577 20.815C25.9817 20.601 26.3588 20.3033 26.6656 19.9396C27.0135 19.5415 27.3078 19.1009 27.5411 18.6268C27.7936 18.1226 28.0336 17.5649 28.2611 16.9536L28.5253 16.2287C27.9968 16.7529 25.6622 18.9546 23.4013 18.7363L23.4021 18.7355ZM20.7121 8.41894C20.6151 8.18899 20.483 7.97494 20.32 7.78513C20.1553 7.60953 19.968 7.45652 19.7639 7.32942C19.5432 7.17891 19.3082 7.05098 19.0616 6.94646C18.8107 6.84946 18.5532 6.7717 18.2914 6.71401C17.9913 6.64795 17.6861 6.60363 17.38 6.58189C17.0514 6.54845 16.6843 6.53172 16.2771 6.53172C13.5604 6.53172 12.0135 7.38879 11.6364 9.10292C11.5754 9.34707 11.7234 9.59458 11.9675 9.65645C11.9909 9.66231 12.0143 9.66649 12.0378 9.66816H13.7109C14.1666 9.66816 14.1666 9.52685 14.3397 9.13469C14.4158 8.92147 14.5521 8.73417 14.7319 8.59704C15.1592 8.32111 15.665 8.1915 16.1726 8.22746C16.6459 8.17896 17.1216 8.29686 17.5172 8.56025C17.819 8.84203 17.9979 9.23252 18.0138 9.64558C18.0138 10.2108 17.8407 10.5846 17.1384 10.5846C15.4744 10.5252 13.6875 10.7125 12.6799 11.2911C11.6707 11.9074 11.0686 13.017 11.1029 14.1993C11.0912 14.6517 11.1832 15.1007 11.3722 15.5121C11.5494 15.87 11.807 16.1818 12.1247 16.4235C12.4575 16.6953 12.8421 16.8968 13.2552 17.0163C13.7218 17.1426 14.2034 17.2036 14.6867 17.1986C15.3373 17.2087 15.9845 17.1167 16.6057 16.9252C17.1551 16.7003 17.6744 16.4076 18.151 16.0548V16.3742C18.151 16.6886 18.2463 16.9712 18.6067 16.9712H20.5441C20.9362 16.9712 21.0274 16.6927 21.0274 16.3466V10.3789C21.0299 10.0068 21.004 9.63471 20.9496 9.2668C20.907 8.97498 20.8267 8.69069 20.7121 8.41894ZM18.0632 14.2813C18.0632 14.2813 17.5615 15.3298 15.7838 15.3298C15.3573 15.349 14.9359 15.2328 14.5805 14.997C14.2628 14.7503 14.0905 14.359 14.1248 13.9577C14.0847 13.415 14.384 12.9033 14.8774 12.6725C15.5965 12.3966 16.3641 12.2678 17.1342 12.2937C17.5849 12.226 18.0055 12.5362 18.0732 12.9869C18.0799 13.0295 18.0824 13.0722 18.0824 13.1148L18.064 14.2821L18.0632 14.2813Z" fill="#333333"/>
<path id="Vector_2" d="M62.372 10.4449C62.8303 11.1816 62.8303 12.1147 62.372 12.8522C61.9163 13.5454 59.4312 16.1986 58.611 17.0506C57.8994 17.7889 56.9378 18.5365 55.9854 18.5365H36.2502C33.5787 18.5365 33.4189 17.625 33.4189 15.5915V7.2993C33.4189 5.21559 34.0344 4.60938 35.8622 4.60938H56.0306C56.9746 4.60938 57.8174 5.09268 58.7657 6.06847C59.5951 6.90296 62.0434 9.95244 62.372 10.4449Z" fill="#33CCCC"/>
<path id="Vector_3" d="M37.8998 7.813V7.76283C37.8998 7.49358 37.8998 7.23438 37.4441 7.23438H35.7893C35.4022 7.23438 35.3838 7.44425 35.3838 7.77203V9.96026C36.0368 9.05135 36.8998 8.31469 37.8998 7.813Z" fill="white"/>
<path id="Vector_4" d="M48.9817 15.7276V15.6088V10.3302C48.9817 8.12103 48.0059 7.01562 46.0551 7.01562C45.5124 7.02231 44.9815 7.18035 44.5233 7.47133C44.0182 7.78656 43.5675 8.1804 43.1879 8.63861C43.0156 8.1436 42.682 7.72134 42.2397 7.43956C41.7371 7.16279 41.1677 7.02817 40.5941 7.05242C39.7504 7.05576 38.931 7.33755 38.2645 7.85513C38.1191 8.00062 35.3789 10.1345 35.3789 12.3595V15.7376C35.3789 15.8421 35.3246 16.2527 35.7845 16.2527H37.5028C38.0363 16.2527 37.9861 15.9015 37.9861 15.756V10.2858C38.2729 9.89871 38.8616 8.97308 39.8324 8.97308C40.1484 8.94465 40.4553 9.0893 40.6351 9.35186C40.8299 9.74067 40.9152 10.1763 40.8809 10.6103V14.873V15.7485C40.8809 15.853 40.8266 16.2636 41.2865 16.2636H42.9872C43.5207 16.2636 43.4705 15.9124 43.4705 15.7669V15.6481V10.2691C43.7807 9.88198 44.3819 8.95635 45.3168 8.95635C45.6362 8.93043 45.9464 9.07425 46.1329 9.33513C46.331 9.72311 46.418 10.1588 46.3837 10.5936V14.8563V15.7318C46.3837 15.8363 46.3294 16.2468 46.7893 16.2468H48.5076C49.0452 16.2192 48.9817 15.8731 48.9817 15.7318V15.7276Z" fill="white"/>
<path id="Vector_5" d="M58.4591 13.5779C57.8596 15.1892 56.2834 16.2252 54.5659 16.1357C51.9404 16.1357 50.1895 14.3489 50.1895 11.6681C50.1895 8.98739 52.0131 7.10938 54.4748 7.10938C56.9365 7.10938 58.5779 8.81431 58.6824 11.5636C58.6824 11.9148 58.5954 12.225 58.1539 12.225H52.5834C52.6202 13.6975 53.3267 14.5044 54.5843 14.5044C55.2667 14.5211 55.8963 14.1406 56.1981 13.5286C56.316 13.3563 56.5134 13.2552 56.7224 13.2593H58.1581C58.3162 13.2518 58.4508 13.3739 58.4583 13.5328C58.4591 13.5545 58.4583 13.5754 58.4541 13.5971L58.4583 13.5787L58.4591 13.5779ZM54.484 8.80929C53.4396 8.80929 52.7331 9.53424 52.5784 10.7283H56.3169C56.2216 9.68391 55.6555 8.80929 54.484 8.80929Z" fill="white"/>
</g>
</g>
</g>
<defs>
<clipPath id="clip0_1903_75819">
<rect width="62.88" height="24" fill="white"/>
</clipPath>
</defs>
</svg>
