<svg width="70" height="24" viewBox="0 0 70 24" fill="none" xmlns="http://www.w3.org/2000/svg">
<g id="644e05c460a3270b14e86c6f_paynet-logo-5 1" clip-path="url(#clip0_1903_75827)">
<path id="Vector" d="M5.96479 18.583C9.37841 18.583 11.7558 15.9534 11.7558 12.5288C11.7558 9.10421 9.37841 6.47461 5.96479 6.47461C2.55117 6.47461 0.173828 9.10421 0.173828 12.5288C0.173828 15.9534 2.55117 18.583 5.96479 18.583Z" fill="#20CC6D"/>
<path id="Vector_2" d="M23.3385 11.2742C23.3385 8.5692 21.6022 6.47461 19.0752 6.47461C17.865 6.47461 16.8596 6.91417 16.1477 7.67942V7.30569C16.1477 6.89638 15.9164 6.68519 15.5071 6.68519H13.9766C13.5673 6.68519 13.3359 6.89638 13.3359 7.30569V19.5202C13.3359 19.9296 13.5673 20.1624 13.9766 20.1624H15.5071C15.9164 20.1624 16.1477 19.9296 16.1477 19.5202V14.869C16.8596 15.6343 17.865 16.1613 19.0752 16.1613C21.6022 16.1613 23.3385 13.9792 23.3385 11.2742ZM20.57 11.2742C20.57 12.5911 19.6002 13.5877 18.3633 13.5877C17.1265 13.5877 16.1477 12.5911 16.1477 11.2742C16.1477 9.96619 17.1265 8.96072 18.3633 8.96072C19.6002 8.96072 20.57 9.96619 20.57 11.2742Z" fill="black"/>
<path id="Vector_3" d="M23.8633 11.2742C23.8633 13.9792 25.6432 16.1613 28.179 16.1613C29.3893 16.1613 30.3859 15.6343 31.1066 14.869V15.2427C31.1066 15.6521 31.338 15.9507 31.7473 15.9507H33.2253C33.6346 15.9507 33.866 15.6521 33.866 15.2427V7.30569C33.866 6.89638 33.6346 6.68519 33.2253 6.68519H31.7473C31.338 6.68519 31.1066 6.89638 31.1066 7.30569V7.67942C30.3859 6.91417 29.3893 6.47461 28.179 6.47461C25.6432 6.47461 23.8633 8.5692 23.8633 11.2742ZM26.6841 11.2742C26.6841 9.96619 27.6452 8.96072 28.8821 8.96072C30.1279 8.96072 31.1066 9.96619 31.1066 11.2742C31.1066 12.5911 30.1279 13.5877 28.8821 13.5877C27.6452 13.5877 26.6841 12.5911 26.6841 11.2742Z" fill="black"/>
<path id="Vector_4" d="M36.6097 20.1588H38.2646C38.6295 20.1588 38.8698 20.1588 38.9943 19.6413L43.2883 7.40001C43.3251 7.29601 43.3423 7.21907 43.3423 7.11625C43.3423 6.83126 43.1572 6.68164 42.7937 6.68164H41.1564C40.7829 6.68164 40.5426 6.83944 40.4357 7.19535L38.8698 12.2494L37.3304 7.19535C37.2236 6.83944 36.9832 6.68164 36.6097 6.68164H34.9725C34.6045 6.68164 34.3926 6.83526 34.3926 7.12639C34.3926 7.21907 34.4121 7.30014 34.4473 7.40001L37.4815 15.9472L36.1114 19.4099C35.9335 19.8637 36.1291 20.1588 36.6097 20.1588Z" fill="black"/>
<path id="Vector_5" d="M49.3316 6.47461C48.2816 6.47461 47.3482 6.87858 46.7254 7.63491V7.30569C46.7254 6.89638 46.494 6.68519 46.0847 6.68519H44.5096C44.1003 6.68519 43.8691 6.89638 43.8691 7.30569V15.2427C43.8691 15.6521 44.1003 15.9507 44.5096 15.9507H46.0847C46.494 15.9507 46.7254 15.6521 46.7254 15.2427V10.9005C46.7254 9.63698 47.5519 8.96072 48.4774 8.96072C49.305 8.96072 49.9633 9.72595 49.9633 10.5535V15.2427C49.9633 15.6521 50.1947 15.9507 50.604 15.9507H52.1789C52.5882 15.9507 52.8188 15.6521 52.8188 15.2427V10.0997C52.8188 7.91967 51.3516 6.47461 49.3316 6.47461Z" fill="black"/>
<path id="Vector_6" d="M67.6459 12.5422V9.13426H69.007C69.4161 9.13426 69.6651 8.90291 69.6651 8.49359V7.30126C69.6651 6.89194 69.4161 6.68076 69.007 6.68076H67.6459V4.43C67.6459 4.06955 67.4356 3.8411 67.0899 3.83792C67.046 3.83752 66.9996 3.84076 66.9515 3.8478L65.3587 4.07408C64.9673 4.13637 64.7714 4.36772 64.7714 4.75923V6.68076H64.032C63.6227 6.68076 63.3477 6.89194 63.3477 7.30126V8.49359C63.3477 8.90291 63.6227 9.13426 64.032 9.13426H64.7714V12.8358C64.7714 14.9002 65.9815 16.1569 67.9481 16.1569C68.4284 16.1569 68.8912 16.0798 69.2826 15.9463C69.6208 15.8306 69.6651 15.5052 69.6651 15.1493V14.2328C69.6651 13.8057 69.5229 13.6011 69.096 13.6189H68.8201C67.9746 13.6189 67.6459 13.2807 67.6459 12.5422Z" fill="black"/>
<path id="Vector_7" d="M56.2633 12.0662H62.6297C63.0124 12.0662 63.2809 11.8793 63.3164 11.4967C63.3343 11.3721 63.3483 11.2386 63.3483 11.123C63.3483 8.53364 61.273 6.47461 58.4523 6.47461C55.5781 6.47461 53.3457 8.56923 53.3457 11.2742C53.3457 13.9792 55.5249 16.1613 58.7102 16.1613C60.3475 16.1613 61.6105 15.5008 62.5536 14.6199C62.856 14.3352 62.8384 14.0148 62.5712 13.7123L62.1888 13.2852C61.9219 12.9827 61.6281 12.9738 61.2901 13.2051C60.5781 13.7034 59.7337 13.9436 58.746 13.9436C57.3757 13.9436 56.4681 13.2318 56.2633 12.0662ZM58.4167 8.60482C59.4757 8.60482 60.2491 9.24548 60.4715 10.2598H56.3078C56.5836 9.22769 57.3757 8.60482 58.4167 8.60482Z" fill="black"/>
</g>
<defs>
<clipPath id="clip0_1903_75827">
<rect width="69.6" height="24" fill="white"/>
</clipPath>
</defs>
</svg>
