<svg width="147" height="34" viewBox="0 0 147 34" fill="none" xmlns="http://www.w3.org/2000/svg">
<g id="644e05c460a3270b14e86c6f_paynet-logo-5 1" clip-path="url(#clip0_1890_107974)">
<path id="Vector" d="M13.2696 30.7102C20.3813 30.7102 25.3341 25.2318 25.3341 18.0973C25.3341 10.9627 20.3813 5.48438 13.2696 5.48438C6.15788 5.48438 1.20508 10.9627 1.20508 18.0973C1.20508 25.2318 6.15788 30.7102 13.2696 30.7102Z" fill="#20CC6D"/>
<path id="Vector_2" d="M49.4627 15.4836C49.4627 9.84811 45.8454 5.48438 40.5808 5.48438C38.0596 5.48438 35.9649 6.40013 34.4819 7.9944V7.2158C34.4819 6.36306 33.9999 5.92308 33.1472 5.92308H29.9587C29.106 5.92308 28.624 6.36306 28.624 7.2158V32.6628C28.624 33.5155 29.106 34.0005 29.9587 34.0005H33.1472C33.9999 34.0005 34.4819 33.5155 34.4819 32.6628V22.9727C35.9649 24.567 38.0596 25.665 40.5808 25.665C45.8454 25.665 49.4627 21.119 49.4627 15.4836ZM43.6951 15.4836C43.6951 18.2271 41.6745 20.3033 39.0978 20.3033C36.521 20.3033 34.4819 18.2271 34.4819 15.4836C34.4819 12.7585 36.521 10.6638 39.0978 10.6638C41.6745 10.6638 43.6951 12.7585 43.6951 15.4836Z" fill="black"/>
<path id="Vector_3" d="M50.5586 15.4836C50.5586 21.119 54.2667 25.665 59.5497 25.665C62.0712 25.665 64.1474 24.567 65.6488 22.9727V23.7513C65.6488 24.6041 66.1309 25.2263 66.9836 25.2263H70.0628C70.9155 25.2263 71.3976 24.6041 71.3976 23.7513V7.2158C71.3976 6.36306 70.9155 5.92308 70.0628 5.92308H66.9836C66.1309 5.92308 65.6488 6.36306 65.6488 7.2158V7.9944C64.1474 6.40013 62.0712 5.48438 59.5497 5.48438C54.2667 5.48438 50.5586 9.84811 50.5586 15.4836ZM56.4354 15.4836C56.4354 12.7585 58.4375 10.6638 61.0144 10.6638C63.6099 10.6638 65.6488 12.7585 65.6488 15.4836C65.6488 18.2271 63.6099 20.3033 61.0144 20.3033C58.4375 20.3033 56.4354 18.2271 56.4354 15.4836Z" fill="black"/>
<path id="Vector_4" d="M77.1142 33.9993H80.5619C81.322 33.9993 81.8226 33.9994 82.082 32.9211L91.0279 7.41848C91.1046 7.20181 91.1403 7.04152 91.1403 6.82732C91.1403 6.23358 90.7548 5.92188 89.9974 5.92188H86.5865C85.8083 5.92188 85.3076 6.25063 85.085 6.99211L81.8226 17.5215L78.6157 6.99211C78.393 6.25063 77.8923 5.92188 77.1142 5.92188H73.7032C72.9366 5.92188 72.4951 6.24191 72.4951 6.84843C72.4951 7.04152 72.5357 7.21042 72.6092 7.41848L78.9304 25.2251L76.0761 32.4391C75.7054 33.3846 76.1128 33.9993 77.1142 33.9993Z" fill="black"/>
<path id="Vector_5" d="M103.616 5.48438C101.429 5.48438 99.4844 6.32598 98.1869 7.90167V7.2158C98.1869 6.36306 97.7048 5.92308 96.8521 5.92308H93.5706C92.7178 5.92308 92.2363 6.36306 92.2363 7.2158V23.7513C92.2363 24.6041 92.7178 25.2263 93.5706 25.2263H96.8521C97.7048 25.2263 98.1869 24.6041 98.1869 23.7513V14.705C98.1869 12.0726 99.9088 10.6638 101.837 10.6638C103.561 10.6638 104.933 12.258 104.933 13.982V23.7513C104.933 24.6041 105.415 25.2263 106.267 25.2263H109.548C110.401 25.2263 110.881 24.6041 110.881 23.7513V13.0366C110.881 8.49491 107.825 5.48438 103.616 5.48438Z" fill="black"/>
<path id="Vector_6" d="M141.772 18.134V11.0341H144.608C145.46 11.0341 145.979 10.5521 145.979 9.69938V7.21535C145.979 6.36261 145.46 5.92264 144.608 5.92264H141.772V1.23357C141.772 0.482627 141.334 0.00669356 140.614 7.00608e-05C140.522 -0.000773028 140.426 0.00598767 140.325 0.0206397L137.007 0.492065C136.192 0.621827 135.784 1.1038 135.784 1.91946V5.92264H134.243C133.39 5.92264 132.817 6.36261 132.817 7.21535V9.69938C132.817 10.5521 133.39 11.0341 134.243 11.0341H135.784V18.7457C135.784 23.0464 138.305 25.6646 142.402 25.6646C143.402 25.6646 144.366 25.5039 145.182 25.2259C145.887 24.9849 145.979 24.307 145.979 23.5655V21.6561C145.979 20.7663 145.683 20.34 144.793 20.377H144.218C142.457 20.377 141.772 19.6726 141.772 18.134Z" fill="black"/>
<path id="Vector_7" d="M118.057 17.1334H131.32C132.117 17.1334 132.677 16.7441 132.751 15.947C132.788 15.6875 132.817 15.4094 132.817 15.1685C132.817 9.77402 128.494 5.48438 122.617 5.48438C116.629 5.48438 111.979 9.84817 111.979 15.4836C111.979 21.119 116.519 25.665 123.155 25.665C126.566 25.665 129.197 24.289 131.162 22.4537C131.792 21.8605 131.755 21.1931 131.198 20.5629L130.402 19.6731C129.846 19.0428 129.234 19.0243 128.529 19.5063C127.046 20.5443 125.287 21.0449 123.229 21.0449C120.374 21.0449 118.483 19.5619 118.057 17.1334ZM122.543 9.92231C124.749 9.92231 126.361 11.257 126.824 13.3703H118.15C118.724 11.22 120.374 9.92231 122.543 9.92231Z" fill="black"/>
</g>
<defs>
<clipPath id="clip0_1890_107974">
<rect width="145.323" height="34" fill="white" transform="translate(0.838867)"/>
</clipPath>
</defs>
</svg>
