<svg width="352" height="198" viewBox="0 0 352 198" fill="none" xmlns="http://www.w3.org/2000/svg">
<g clip-path="url(#clip0_1903_86612)">
<rect width="352" height="198" rx="25" fill="#FFEECA"/>
<path d="M19.85 36.7514H23.922V44.6469H17.5745C13.9417 44.6469 11.0675 43.6079 8.95162 41.5302C6.85583 39.4328 5.80806 36.5634 5.80806 32.9223V18.9421H-0.180176V17.0424L12.9039 3.24023H14.6105V11.8184H23.7423V18.9421H14.7601V31.7352C14.7601 33.3379 15.1993 34.5748 16.0775 35.4454C16.9557 36.3161 18.2132 36.7514 19.85 36.7514ZM45.449 45.567C42.0756 45.567 39.0216 44.815 36.2872 43.3111C33.5527 41.8073 31.407 39.7296 29.8501 37.078C28.3131 34.4264 27.5446 31.4778 27.5446 28.2326C27.5446 24.9478 28.3131 21.9895 29.8501 19.3577C31.407 16.706 33.5527 14.6382 36.2872 13.1541C39.0216 11.6502 42.0756 10.8982 45.449 10.8982C48.8023 10.8982 51.8461 11.6502 54.5808 13.1541C57.3152 14.6382 59.4609 16.706 61.0178 19.3577C62.5747 22.0093 63.3531 24.9675 63.3531 28.2326C63.3531 31.4778 62.5747 34.4264 61.0178 37.078C59.4609 39.7296 57.3152 41.8073 54.5808 43.3111C51.8461 44.815 48.8023 45.567 45.449 45.567ZM39.1016 34.733C40.7582 36.3953 42.8741 37.2264 45.449 37.2264C48.0238 37.2264 50.1395 36.3953 51.7962 34.733C53.4528 33.051 54.2814 30.8842 54.2814 28.2326C54.2814 25.581 53.4528 23.4241 51.7962 21.7619C50.1395 20.0799 48.0238 19.2389 45.449 19.2389C42.8741 19.2389 40.7582 20.0799 39.1016 21.7619C37.4449 23.4241 36.6166 25.581 36.6166 28.2326C36.6166 30.8842 37.4449 33.051 39.1016 34.733ZM87.8447 10.8982C91.1174 10.8982 94.0708 11.6502 96.7074 13.1541C99.3605 14.6382 101.437 16.706 102.934 19.3577C104.43 22.0093 105.18 24.9675 105.18 28.2326C105.18 31.4977 104.43 34.466 102.934 37.1373C101.437 39.7889 99.3605 41.8666 96.7074 43.3705C94.0708 44.8745 91.1174 45.6263 87.8447 45.6263C84.4916 45.6263 81.4578 44.7062 78.7432 42.866V56.4901H69.7904V11.8184H75.6881L77.2156 14.8163C80.1904 12.2043 83.7326 10.8982 87.8447 10.8982ZM80.6278 34.6737C82.3445 36.3754 84.5011 37.2264 87.0951 37.2264C89.6915 37.2264 91.8362 36.3754 93.534 34.6737C95.2484 32.972 96.1068 30.8249 96.1068 28.2326C96.1068 25.6403 95.2484 23.4934 93.534 21.7916C91.8362 20.0898 89.6915 19.2389 87.0951 19.2389C84.5011 19.2389 82.3445 20.0997 80.6278 21.8213C78.9324 23.5231 78.0835 25.6603 78.0835 28.2326C78.0835 30.8052 78.9324 32.9521 80.6278 34.6737Z" fill="#FDC500"/>
<path d="M141.419 36.7514H145.491V44.6469H139.144C135.511 44.6469 132.637 43.6079 130.521 41.5302C128.425 39.4328 127.377 36.5634 127.377 32.9223V18.9421H121.389V17.0424L134.473 3.24023H136.18V11.8184H145.312V18.9421H136.329V31.7352C136.329 33.3379 136.769 34.5748 137.647 35.4454C138.525 36.3161 139.783 36.7514 141.419 36.7514ZM167.018 45.567C163.645 45.567 160.591 44.815 157.857 43.3111C155.122 41.8073 152.976 39.7296 151.419 37.078C149.882 34.4264 149.114 31.4778 149.114 28.2326C149.114 24.9478 149.882 21.9895 151.419 19.3577C152.976 16.706 155.122 14.6382 157.857 13.1541C160.591 11.6502 163.645 10.8982 167.018 10.8982C170.372 10.8982 173.415 11.6502 176.15 13.1541C178.885 14.6382 181.03 16.706 182.587 19.3577C184.144 22.0093 184.922 24.9675 184.922 28.2326C184.922 31.4778 184.144 34.4264 182.587 37.078C181.03 39.7296 178.885 41.8073 176.15 43.3111C173.415 44.815 170.372 45.567 167.018 45.567ZM160.671 34.733C162.328 36.3953 164.443 37.2264 167.018 37.2264C169.593 37.2264 171.709 36.3953 173.366 34.733C175.022 33.051 175.851 30.8842 175.851 28.2326C175.851 25.581 175.022 23.4241 173.366 21.7619C171.709 20.0799 169.593 19.2389 167.018 19.2389C164.443 19.2389 162.328 20.0799 160.671 21.7619C159.014 23.4241 158.186 25.581 158.186 28.2326C158.186 30.8842 159.014 33.051 160.671 34.733ZM209.414 10.8982C212.687 10.8982 215.64 11.6502 218.277 13.1541C220.93 14.6382 223.006 16.706 224.503 19.3577C226 22.0093 226.749 24.9675 226.749 28.2326C226.749 31.4977 226 34.466 224.503 37.1373C223.006 39.7889 220.93 41.8666 218.277 43.3705C215.64 44.8745 212.687 45.6263 209.414 45.6263C206.061 45.6263 203.027 44.7062 200.313 42.866V56.4901H191.36V11.8184H197.257L198.785 14.8163C201.76 12.2043 205.302 10.8982 209.414 10.8982ZM202.197 34.6737C203.914 36.3754 206.07 37.2264 208.664 37.2264C211.261 37.2264 213.406 36.3754 215.103 34.6737C216.818 32.972 217.676 30.8249 217.676 28.2326C217.676 25.6403 216.818 23.4934 215.103 21.7916C213.406 20.0898 211.261 19.2389 208.664 19.2389C206.07 19.2389 203.914 20.0997 202.197 21.8213C200.502 23.5231 199.653 25.6603 199.653 28.2326C199.653 30.8052 200.502 32.9521 202.197 34.6737Z" fill="#FDC500"/>
<path d="M262.989 36.7514H267.061V44.6469H260.713C257.08 44.6469 254.206 43.6079 252.09 41.5302C249.995 39.4328 248.947 36.5634 248.947 32.9223V18.9421H242.958V17.0424L256.043 3.24023H257.749V11.8184H266.881V18.9421H257.899V31.7352C257.899 33.3379 258.338 34.5748 259.216 35.4454C260.094 36.3161 261.352 36.7514 262.989 36.7514ZM288.588 45.567C285.214 45.567 282.16 44.815 279.426 43.3111C276.691 41.8073 274.546 39.7296 272.989 37.078C271.452 34.4264 270.683 31.4778 270.683 28.2326C270.683 24.9478 271.452 21.9895 272.989 19.3577C274.546 16.706 276.691 14.6382 279.426 13.1541C282.16 11.6502 285.214 10.8982 288.588 10.8982C291.941 10.8982 294.985 11.6502 297.719 13.1541C300.454 14.6382 302.6 16.706 304.156 19.3577C305.713 22.0093 306.492 24.9675 306.492 28.2326C306.492 31.4778 305.713 34.4264 304.156 37.078C302.6 39.7296 300.454 41.8073 297.719 43.3111C294.985 44.815 291.941 45.567 288.588 45.567ZM282.24 34.733C283.897 36.3953 286.013 37.2264 288.588 37.2264C291.163 37.2264 293.278 36.3953 294.935 34.733C296.592 33.051 297.42 30.8842 297.42 28.2326C297.42 25.581 296.592 23.4241 294.935 21.7619C293.278 20.0799 291.163 19.2389 288.588 19.2389C286.013 19.2389 283.897 20.0799 282.24 21.7619C280.584 23.4241 279.755 25.581 279.755 28.2326C279.755 30.8842 280.584 33.051 282.24 34.733ZM330.983 10.8982C334.256 10.8982 337.21 11.6502 339.846 13.1541C342.499 14.6382 344.575 16.706 346.072 19.3577C347.569 22.0093 348.319 24.9675 348.319 28.2326C348.319 31.4977 347.569 34.466 346.072 37.1373C344.575 39.7889 342.499 41.8666 339.846 43.3705C337.21 44.8745 334.256 45.6263 330.983 45.6263C327.63 45.6263 324.596 44.7062 321.882 42.866V56.4901H312.929V11.8184H318.827L320.354 14.8163C323.329 12.2043 326.871 10.8982 330.983 10.8982ZM323.766 34.6737C325.483 36.3754 327.64 37.2264 330.234 37.2264C332.83 37.2264 334.975 36.3754 336.673 34.6737C338.387 32.972 339.245 30.8249 339.245 28.2326C339.245 25.6403 338.387 23.4934 336.673 21.7916C334.975 20.0898 332.83 19.2389 330.234 19.2389C327.64 19.2389 325.483 20.0997 323.766 21.8213C322.071 23.5231 321.222 25.6603 321.222 28.2326C321.222 30.8052 322.071 32.9521 323.766 34.6737Z" fill="#FDC500"/>
<path d="M19.85 106.21H23.922V114.106H17.5745C13.9417 114.106 11.0675 113.067 8.95162 110.989C6.85583 108.892 5.80806 106.022 5.80806 102.381V88.4011H-0.180176V86.5014L12.9039 72.6992H14.6105V81.2774H23.7423V88.4011H14.7601V101.194C14.7601 102.797 15.1993 104.034 16.0775 104.904C16.9557 105.775 18.2132 106.21 19.85 106.21ZM45.449 115.026C42.0756 115.026 39.0216 114.274 36.2872 112.77C33.5527 111.266 31.407 109.189 29.8501 106.537C28.3131 103.885 27.5446 100.937 27.5446 97.6916C27.5446 94.4068 28.3131 91.4485 29.8501 88.8166C31.407 86.165 33.5527 84.0972 36.2872 82.6131C39.0216 81.1092 42.0756 80.3572 45.449 80.3572C48.8023 80.3572 51.8461 81.1092 54.5808 82.6131C57.3152 84.0972 59.4609 86.165 61.0178 88.8166C62.5747 91.4683 63.3531 94.4265 63.3531 97.6916C63.3531 100.937 62.5747 103.885 61.0178 106.537C59.4609 109.189 57.3152 111.266 54.5808 112.77C51.8461 114.274 48.8023 115.026 45.449 115.026ZM39.1016 104.192C40.7582 105.854 42.8741 106.685 45.449 106.685C48.0238 106.685 50.1395 105.854 51.7962 104.192C53.4528 102.51 54.2814 100.343 54.2814 97.6916C54.2814 95.04 53.4528 92.8831 51.7962 91.2209C50.1395 89.5389 48.0238 88.6979 45.449 88.6979C42.8741 88.6979 40.7582 89.5389 39.1016 91.2209C37.4449 92.8831 36.6166 95.04 36.6166 97.6916C36.6166 100.343 37.4449 102.51 39.1016 104.192ZM87.8447 80.3572C91.1174 80.3572 94.0708 81.1092 96.7074 82.6131C99.3605 84.0972 101.437 86.165 102.934 88.8166C104.43 91.4683 105.18 94.4265 105.18 97.6916C105.18 100.957 104.43 103.925 102.934 106.596C101.437 109.248 99.3605 111.326 96.7074 112.829C94.0708 114.334 91.1174 115.085 87.8447 115.085C84.4916 115.085 81.4578 114.165 78.7432 112.325V125.949H69.7904V81.2774H75.6881L77.2156 84.2753C80.1904 81.6632 83.7326 80.3572 87.8447 80.3572ZM80.6278 104.133C82.3445 105.834 84.5011 106.685 87.0951 106.685C89.6915 106.685 91.8362 105.834 93.534 104.133C95.2484 102.431 96.1068 100.284 96.1068 97.6916C96.1068 95.0993 95.2484 92.9524 93.534 91.2506C91.8362 89.5488 89.6915 88.6979 87.0951 88.6979C84.5011 88.6979 82.3445 89.5587 80.6278 91.2803C78.9324 92.982 78.0835 95.1192 78.0835 97.6916C78.0835 100.264 78.9324 102.411 80.6278 104.133Z" fill="#FDC500"/>
<path d="M141.419 106.21H145.491V114.106H139.144C135.511 114.106 132.637 113.067 130.521 110.989C128.425 108.892 127.377 106.022 127.377 102.381V88.4011H121.389V86.5014L134.473 72.6992H136.18V81.2774H145.312V88.4011H136.329V101.194C136.329 102.797 136.769 104.034 137.647 104.904C138.525 105.775 139.783 106.21 141.419 106.21ZM167.018 115.026C163.645 115.026 160.591 114.274 157.857 112.77C155.122 111.266 152.976 109.189 151.419 106.537C149.882 103.885 149.114 100.937 149.114 97.6916C149.114 94.4068 149.882 91.4485 151.419 88.8166C152.976 86.165 155.122 84.0972 157.857 82.6131C160.591 81.1092 163.645 80.3572 167.018 80.3572C170.372 80.3572 173.415 81.1092 176.15 82.6131C178.885 84.0972 181.03 86.165 182.587 88.8166C184.144 91.4683 184.922 94.4265 184.922 97.6916C184.922 100.937 184.144 103.885 182.587 106.537C181.03 109.189 178.885 111.266 176.15 112.77C173.415 114.274 170.372 115.026 167.018 115.026ZM160.671 104.192C162.328 105.854 164.443 106.685 167.018 106.685C169.593 106.685 171.709 105.854 173.366 104.192C175.022 102.51 175.851 100.343 175.851 97.6916C175.851 95.04 175.022 92.8831 173.366 91.2209C171.709 89.5389 169.593 88.6979 167.018 88.6979C164.443 88.6979 162.328 89.5389 160.671 91.2209C159.014 92.8831 158.186 95.04 158.186 97.6916C158.186 100.343 159.014 102.51 160.671 104.192ZM209.414 80.3572C212.687 80.3572 215.64 81.1092 218.277 82.6131C220.93 84.0972 223.006 86.165 224.503 88.8166C226 91.4683 226.749 94.4265 226.749 97.6916C226.749 100.957 226 103.925 224.503 106.596C223.006 109.248 220.93 111.326 218.277 112.829C215.64 114.334 212.687 115.085 209.414 115.085C206.061 115.085 203.027 114.165 200.313 112.325V125.949H191.36V81.2774H197.257L198.785 84.2753C201.76 81.6632 205.302 80.3572 209.414 80.3572ZM202.197 104.133C203.914 105.834 206.07 106.685 208.664 106.685C211.261 106.685 213.406 105.834 215.103 104.133C216.818 102.431 217.676 100.284 217.676 97.6916C217.676 95.0993 216.818 92.9524 215.103 91.2506C213.406 89.5488 211.261 88.6979 208.664 88.6979C206.07 88.6979 203.914 89.5587 202.197 91.2803C200.502 92.982 199.653 95.1192 199.653 97.6916C199.653 100.264 200.502 102.411 202.197 104.133Z" fill="#FDC500"/>
<path d="M262.989 106.21H267.061V114.106H260.713C257.08 114.106 254.206 113.067 252.09 110.989C249.995 108.892 248.947 106.022 248.947 102.381V88.4011H242.958V86.5014L256.043 72.6992H257.749V81.2774H266.881V88.4011H257.899V101.194C257.899 102.797 258.338 104.034 259.216 104.904C260.094 105.775 261.352 106.21 262.989 106.21ZM288.588 115.026C285.214 115.026 282.16 114.274 279.426 112.77C276.691 111.266 274.546 109.189 272.989 106.537C271.452 103.885 270.683 100.937 270.683 97.6916C270.683 94.4068 271.452 91.4485 272.989 88.8166C274.546 86.165 276.691 84.0972 279.426 82.6131C282.16 81.1092 285.214 80.3572 288.588 80.3572C291.941 80.3572 294.985 81.1092 297.719 82.6131C300.454 84.0972 302.6 86.165 304.156 88.8166C305.713 91.4683 306.492 94.4265 306.492 97.6916C306.492 100.937 305.713 103.885 304.156 106.537C302.6 109.189 300.454 111.266 297.719 112.77C294.985 114.274 291.941 115.026 288.588 115.026ZM282.24 104.192C283.897 105.854 286.013 106.685 288.588 106.685C291.163 106.685 293.278 105.854 294.935 104.192C296.592 102.51 297.42 100.343 297.42 97.6916C297.42 95.04 296.592 92.8831 294.935 91.2209C293.278 89.5389 291.163 88.6979 288.588 88.6979C286.013 88.6979 283.897 89.5389 282.24 91.2209C280.584 92.8831 279.755 95.04 279.755 97.6916C279.755 100.343 280.584 102.51 282.24 104.192ZM330.983 80.3572C334.256 80.3572 337.21 81.1092 339.846 82.6131C342.499 84.0972 344.575 86.165 346.072 88.8166C347.569 91.4683 348.319 94.4265 348.319 97.6916C348.319 100.957 347.569 103.925 346.072 106.596C344.575 109.248 342.499 111.326 339.846 112.829C337.21 114.334 334.256 115.085 330.983 115.085C327.63 115.085 324.596 114.165 321.882 112.325V125.949H312.929V81.2774H318.827L320.354 84.2753C323.329 81.6632 326.871 80.3572 330.983 80.3572ZM323.766 104.133C325.483 105.834 327.64 106.685 330.234 106.685C332.83 106.685 334.975 105.834 336.673 104.133C338.387 102.431 339.245 100.284 339.245 97.6916C339.245 95.0993 338.387 92.9524 336.673 91.2506C334.975 89.5488 332.83 88.6979 330.234 88.6979C327.64 88.6979 325.483 89.5587 323.766 91.2803C322.071 92.982 321.222 95.1192 321.222 97.6916C321.222 100.264 322.071 102.411 323.766 104.133Z" fill="#FDC500"/>
<path d="M19.85 175.669H23.922V183.565H17.5745C13.9417 183.565 11.0675 182.526 8.95162 180.448C6.85583 178.351 5.80806 175.481 5.80806 171.84V157.86H-0.180176V155.96L12.9039 142.158H14.6105V150.736H23.7423V157.86H14.7601V170.653C14.7601 172.256 15.1993 173.493 16.0775 174.363C16.9557 175.234 18.2132 175.669 19.85 175.669ZM45.449 184.485C42.0756 184.485 39.0216 183.733 36.2872 182.229C33.5527 180.725 31.407 178.648 29.8501 175.996C28.3131 173.344 27.5446 170.396 27.5446 167.151C27.5446 163.866 28.3131 160.907 29.8501 158.276C31.407 155.624 33.5527 153.556 36.2872 152.072C39.0216 150.568 42.0756 149.816 45.449 149.816C48.8023 149.816 51.8461 150.568 54.5808 152.072C57.3152 153.556 59.4609 155.624 61.0178 158.276C62.5747 160.927 63.3531 163.885 63.3531 167.151C63.3531 170.396 62.5747 173.344 61.0178 175.996C59.4609 178.648 57.3152 180.725 54.5808 182.229C51.8461 183.733 48.8023 184.485 45.449 184.485ZM39.1016 173.651C40.7582 175.313 42.8741 176.144 45.449 176.144C48.0238 176.144 50.1395 175.313 51.7962 173.651C53.4528 171.969 54.2814 169.802 54.2814 167.151C54.2814 164.499 53.4528 162.342 51.7962 160.68C50.1395 158.998 48.0238 158.157 45.449 158.157C42.8741 158.157 40.7582 158.998 39.1016 160.68C37.4449 162.342 36.6166 164.499 36.6166 167.151C36.6166 169.802 37.4449 171.969 39.1016 173.651ZM87.8447 149.816C91.1174 149.816 94.0708 150.568 96.7074 152.072C99.3605 153.556 101.437 155.624 102.934 158.276C104.43 160.927 105.18 163.885 105.18 167.151C105.18 170.416 104.43 173.384 102.934 176.055C101.437 178.707 99.3605 180.785 96.7074 182.288C94.0708 183.792 91.1174 184.544 87.8447 184.544C84.4916 184.544 81.4578 183.624 78.7432 181.784V195.408H69.7904V150.736H75.6881L77.2156 153.734C80.1904 151.122 83.7326 149.816 87.8447 149.816ZM80.6278 173.592C82.3445 175.293 84.5011 176.144 87.0951 176.144C89.6915 176.144 91.8362 175.293 93.534 173.592C95.2484 171.89 96.1068 169.743 96.1068 167.151C96.1068 164.558 95.2484 162.411 93.534 160.71C91.8362 159.008 89.6915 158.157 87.0951 158.157C84.5011 158.157 82.3445 159.018 80.6278 160.739C78.9324 162.441 78.0835 164.578 78.0835 167.151C78.0835 169.723 78.9324 171.87 80.6278 173.592Z" fill="#FDC500"/>
<path d="M141.419 175.669H145.491V183.565H139.144C135.511 183.565 132.637 182.526 130.521 180.448C128.425 178.351 127.377 175.481 127.377 171.84V157.86H121.389V155.96L134.473 142.158H136.18V150.736H145.312V157.86H136.329V170.653C136.329 172.256 136.769 173.493 137.647 174.363C138.525 175.234 139.783 175.669 141.419 175.669ZM167.018 184.485C163.645 184.485 160.591 183.733 157.857 182.229C155.122 180.725 152.976 178.648 151.419 175.996C149.882 173.344 149.114 170.396 149.114 167.151C149.114 163.866 149.882 160.907 151.419 158.276C152.976 155.624 155.122 153.556 157.857 152.072C160.591 150.568 163.645 149.816 167.018 149.816C170.372 149.816 173.415 150.568 176.15 152.072C178.885 153.556 181.03 155.624 182.587 158.276C184.144 160.927 184.922 163.885 184.922 167.151C184.922 170.396 184.144 173.344 182.587 175.996C181.03 178.648 178.885 180.725 176.15 182.229C173.415 183.733 170.372 184.485 167.018 184.485ZM160.671 173.651C162.328 175.313 164.443 176.144 167.018 176.144C169.593 176.144 171.709 175.313 173.366 173.651C175.022 171.969 175.851 169.802 175.851 167.151C175.851 164.499 175.022 162.342 173.366 160.68C171.709 158.998 169.593 158.157 167.018 158.157C164.443 158.157 162.328 158.998 160.671 160.68C159.014 162.342 158.186 164.499 158.186 167.151C158.186 169.802 159.014 171.969 160.671 173.651ZM209.414 149.816C212.687 149.816 215.64 150.568 218.277 152.072C220.93 153.556 223.006 155.624 224.503 158.276C226 160.927 226.749 163.885 226.749 167.151C226.749 170.416 226 173.384 224.503 176.055C223.006 178.707 220.93 180.785 218.277 182.288C215.64 183.792 212.687 184.544 209.414 184.544C206.061 184.544 203.027 183.624 200.313 181.784V195.408H191.36V150.736H197.257L198.785 153.734C201.76 151.122 205.302 149.816 209.414 149.816ZM202.197 173.592C203.914 175.293 206.07 176.144 208.664 176.144C211.261 176.144 213.406 175.293 215.103 173.592C216.818 171.89 217.676 169.743 217.676 167.151C217.676 164.558 216.818 162.411 215.103 160.71C213.406 159.008 211.261 158.157 208.664 158.157C206.07 158.157 203.914 159.018 202.197 160.739C200.502 162.441 199.653 164.578 199.653 167.151C199.653 169.723 200.502 171.87 202.197 173.592Z" fill="#FDC500"/>
<path d="M262.989 175.669H267.061V183.565H260.713C257.08 183.565 254.206 182.526 252.09 180.448C249.995 178.351 248.947 175.481 248.947 171.84V157.86H242.958V155.96L256.043 142.158H257.749V150.736H266.881V157.86H257.899V170.653C257.899 172.256 258.338 173.493 259.216 174.363C260.094 175.234 261.352 175.669 262.989 175.669ZM288.588 184.485C285.214 184.485 282.16 183.733 279.426 182.229C276.691 180.725 274.546 178.648 272.989 175.996C271.452 173.344 270.683 170.396 270.683 167.151C270.683 163.866 271.452 160.907 272.989 158.276C274.546 155.624 276.691 153.556 279.426 152.072C282.16 150.568 285.214 149.816 288.588 149.816C291.941 149.816 294.985 150.568 297.719 152.072C300.454 153.556 302.6 155.624 304.156 158.276C305.713 160.927 306.492 163.885 306.492 167.151C306.492 170.396 305.713 173.344 304.156 175.996C302.6 178.648 300.454 180.725 297.719 182.229C294.985 183.733 291.941 184.485 288.588 184.485ZM282.24 173.651C283.897 175.313 286.013 176.144 288.588 176.144C291.163 176.144 293.278 175.313 294.935 173.651C296.592 171.969 297.42 169.802 297.42 167.151C297.42 164.499 296.592 162.342 294.935 160.68C293.278 158.998 291.163 158.157 288.588 158.157C286.013 158.157 283.897 158.998 282.24 160.68C280.584 162.342 279.755 164.499 279.755 167.151C279.755 169.802 280.584 171.969 282.24 173.651ZM330.983 149.816C334.256 149.816 337.21 150.568 339.846 152.072C342.499 153.556 344.575 155.624 346.072 158.276C347.569 160.927 348.319 163.885 348.319 167.151C348.319 170.416 347.569 173.384 346.072 176.055C344.575 178.707 342.499 180.785 339.846 182.288C337.21 183.792 334.256 184.544 330.983 184.544C327.63 184.544 324.596 183.624 321.882 181.784V195.408H312.929V150.736H318.827L320.354 153.734C323.329 151.122 326.871 149.816 330.983 149.816ZM323.766 173.592C325.483 175.293 327.64 176.144 330.234 176.144C332.83 176.144 334.975 175.293 336.673 173.592C338.387 171.89 339.245 169.743 339.245 167.151C339.245 164.558 338.387 162.411 336.673 160.71C334.975 159.008 332.83 158.157 330.234 158.157C327.64 158.157 325.483 159.018 323.766 160.739C322.071 162.441 321.222 164.578 321.222 167.151C321.222 169.723 322.071 171.87 323.766 173.592Z" fill="#FDC500"/>
</g>
<defs>
<clipPath id="clip0_1903_86612">
<rect width="352" height="198" rx="25" fill="white"/>
</clipPath>
</defs>
</svg>
