<svg width="15" height="13" viewBox="0 0 15 13" fill="none" xmlns="http://www.w3.org/2000/svg">
<path d="M1.34605 5.46709C1.34605 5.46709 7.44946 2.89644 9.56622 1.99125C10.3777 1.62921 13.1295 0.47056 13.1295 0.47056C13.1295 0.47056 14.3996 -0.0363042 14.2937 1.1947C14.2584 1.70162 13.9762 3.47572 13.694 5.39468C13.2706 8.11021 12.812 11.0791 12.812 11.0791C12.812 11.0791 12.7414 11.9119 12.1417 12.0567C11.5419 12.2015 10.5541 11.5499 10.3777 11.405C10.2365 11.2964 7.73169 9.66708 6.81442 8.87053C6.56745 8.6533 6.28523 8.21884 6.84967 7.71193C8.11977 6.5171 9.63678 5.03264 10.554 4.09127C10.9774 3.65676 11.4008 2.64299 9.63678 3.87399C7.13194 5.64814 4.66235 7.31365 4.66235 7.31365C4.66235 7.31365 4.09786 7.6757 3.03948 7.34983C1.98105 7.02402 0.74626 6.58951 0.74626 6.58951C0.74626 6.58951 -0.100405 6.04642 1.34605 5.46709Z" fill="#1977F1"/>
</svg>
