<svg width="24" height="24" viewBox="0 0 24 24" fill="none" xmlns="http://www.w3.org/2000/svg">
<g clip-path="url(#clip0_540_7571)">
<path d="M0.566625 8.34989C0.199031 9.50152 -4.68667e-05 10.7284 8.276e-09 12.0019C-4.68667e-05 13.2755 0.199078 14.5025 0.566672 15.6541L12 16.1759L23.4333 15.6542C23.8009 14.5025 24 13.2755 24 12.002C24 10.7284 23.8009 9.50152 23.4333 8.34984L12 7.82812L0.566625 8.34989Z" fill="#F0F0F0"/>
<path d="M23.4332 8.34984L11.9999 7.82812L0.5665 8.34984C0.457562 8.69128 0.363766 9.03942 0.285156 9.39333H23.7144C23.6359 9.03938 23.5421 8.69119 23.4332 8.34984Z" fill="#D80027"/>
<path d="M0.285156 14.6094C0.363672 14.9633 0.457469 15.3114 0.566406 15.6528L0.567531 15.6529L11.9997 16.1746L23.433 15.6529C23.542 15.3114 23.6357 14.9633 23.7143 14.6094H0.285156Z" fill="#D80027"/>
<path d="M11.9997 23.9963C17.3536 23.9963 21.8878 20.4899 23.433 15.6484H0.566406C2.11164 20.4898 6.64595 23.9963 11.9997 23.9963Z" fill="#6DA544"/>
<path d="M11.9997 4.69973e-10C6.64595 4.68755e-05 2.11173 3.50644 0.566406 8.34783L23.433 8.34787C21.8879 3.50639 17.3536 -4.68745e-05 11.9997 4.69973e-10Z" fill="#338AF3"/>
<path d="M5.48376 4.95716C5.48376 3.83323 6.27365 2.89433 7.32848 2.66398C7.16638 2.62855 6.99815 2.60938 6.82537 2.60938C5.52871 2.60938 4.47754 3.6605 4.47754 4.9572C4.47754 6.25391 5.52862 7.30503 6.82537 7.30503C6.99815 7.30503 7.16634 7.28581 7.32848 7.25042C6.2737 7.01998 5.48376 6.08108 5.48376 4.95716Z" fill="#F0F0F0"/>
<path d="M8.71628 6.02344L8.87519 6.51258H9.3895L8.97344 6.81492L9.13234 7.30406L8.71628 7.00177L8.30012 7.30406L8.45908 6.81492L8.04297 6.51258H8.55728L8.71628 6.02344Z" fill="#F0F0F0"/>
<path d="M10.3578 6.02344L10.5167 6.51258H11.0311L10.6149 6.81492L10.7739 7.30406L10.3578 7.00177L9.94168 7.30406L10.1006 6.81492L9.68457 6.51258H10.1988L10.3578 6.02344Z" fill="#F0F0F0"/>
<path d="M11.9995 6.02344L12.1584 6.51258H12.6727L12.2566 6.81492L12.4155 7.30406L11.9995 7.00177L11.5833 7.30406L11.7423 6.81492L11.3262 6.51258H11.8405L11.9995 6.02344Z" fill="#F0F0F0"/>
<path d="M13.6411 6.02344L13.8 6.51258H14.3143L13.8982 6.81492L14.0572 7.30406L13.6411 7.00177L13.2249 7.30406L13.3839 6.81492L12.9678 6.51258H13.4821L13.6411 6.02344Z" fill="#F0F0F0"/>
<path d="M15.2826 6.02344L15.4415 6.51258H15.9559L15.5398 6.81492L15.6987 7.30406L15.2826 7.00177L14.8665 7.30406L15.0254 6.81492L14.6094 6.51258H15.1236L15.2826 6.02344Z" fill="#F0F0F0"/>
<path d="M10.3578 4.32031L10.5167 4.80941H11.0311L10.6149 5.1118L10.7739 5.60089L10.3578 5.29859L9.94168 5.60089L10.1006 5.1118L9.68457 4.80941H10.1988L10.3578 4.32031Z" fill="#F0F0F0"/>
<path d="M11.9995 4.32031L12.1584 4.80941H12.6727L12.2566 5.1118L12.4155 5.60089L11.9995 5.29859L11.5833 5.60089L11.7423 5.1118L11.3262 4.80941H11.8405L11.9995 4.32031Z" fill="#F0F0F0"/>
<path d="M13.6411 4.32031L13.8 4.80941H14.3143L13.8982 5.1118L14.0572 5.60089L13.6411 5.29859L13.2249 5.60089L13.3839 5.1118L12.9678 4.80941H13.4821L13.6411 4.32031Z" fill="#F0F0F0"/>
<path d="M15.2826 4.32031L15.4415 4.80941H15.9559L15.5398 5.1118L15.6987 5.60089L15.2826 5.29859L14.8665 5.60089L15.0254 5.1118L14.6094 4.80941H15.1236L15.2826 4.32031Z" fill="#F0F0F0"/>
<path d="M11.9995 2.60938L12.1584 3.09856H12.6727L12.2566 3.40086L12.4155 3.89005L11.9995 3.58775L11.5833 3.89005L11.7423 3.40086L11.3262 3.09856H11.8405L11.9995 2.60938Z" fill="#F0F0F0"/>
<path d="M13.6411 2.60938L13.8 3.09856H14.3143L13.8982 3.40086L14.0572 3.89005L13.6411 3.58775L13.2249 3.89005L13.3839 3.40086L12.9678 3.09856H13.4821L13.6411 2.60938Z" fill="#F0F0F0"/>
<path d="M15.2826 2.60938L15.4415 3.09856H15.9559L15.5398 3.40086L15.6987 3.89005L15.2826 3.58775L14.8665 3.89005L15.0254 3.40086L14.6094 3.09856H15.1236L15.2826 2.60938Z" fill="#F0F0F0"/>
</g>
<defs>
<clipPath id="clip0_540_7571">
<rect width="24" height="24" fill="white"/>
</clipPath>
</defs>
</svg>
