<svg width="18" height="12" viewBox="0 0 18 12" fill="none" xmlns="http://www.w3.org/2000/svg">
<path d="M17.3442 1.87364C17.1484 1.13727 16.5689 0.556364 15.8317 0.357273C14.4988 1.30047e-07 9.15059 0 9.15059 0C9.15059 0 3.80514 1.30047e-07 2.46945 0.357273C1.73496 0.553636 1.15553 1.13455 0.956949 1.87364C0.600586 3.21 0.600586 6 0.600586 6C0.600586 6 0.600586 8.79 0.956949 10.1264C1.15281 10.8627 1.73224 11.4436 2.46945 11.6427C3.80514 12 9.15059 12 9.15059 12C9.15059 12 14.4988 12 15.8317 11.6427C16.5662 11.4464 17.1456 10.8655 17.3442 10.1264C17.7006 8.79 17.7006 6 17.7006 6C17.7006 6 17.7006 3.21 17.3442 1.87364Z" fill="#1977F1"/>
<path d="M7.44222 8.57182L11.8845 6L7.44222 3.42818V8.57182Z" fill="white"/>
</svg>
